<?xml version="1.0" encoding="UTF-8"?>
<svg version="1.1" xmlns="http://www.w3.org/2000/svg" width="1024" height="1024">
<path d="M0 0 C1.21042969 -0.020625 2.42085937 -0.04125 3.66796875 -0.0625 C4.82683594 -0.06765625 5.98570313 -0.0728125 7.1796875 -0.078125 C8.24687012 -0.0874707 9.31405273 -0.09681641 10.41357422 -0.10644531 C13.125 0.25 13.125 0.25 14.79736328 1.44995117 C16.44922786 3.68959765 17.89465744 5.98292913 19.3125 8.37890625 C20.22962769 9.91985962 20.22962769 9.91985962 21.1652832 11.49194336 C21.81198975 12.58772705 22.45869629 13.68351074 23.125 14.8125 C24.47214386 17.07582589 25.81980435 19.33884435 27.16796875 21.6015625 C27.83489746 22.72336914 28.50182617 23.84517578 29.18896484 25.00097656 C31.91577332 29.57706323 34.66812709 34.13707178 37.4375 38.6875 C37.88673828 39.43136963 38.33597656 40.17523926 38.79882812 40.94165039 C40.42450672 43.60937375 41.90718159 46.03218159 44.125 48.25 C45.01193319 49.79413615 45.86017111 51.36062529 46.6875 52.9375 C49.17866269 57.57433567 51.78609865 62.11669642 54.5 66.625 C54.83845947 67.18791748 55.17691895 67.75083496 55.52563477 68.33081055 C59.35079313 74.66262347 63.24788185 80.949683 67.125 87.25 C67.455 58.54 67.785 29.83 68.125 0.25 C77.035 0.25 85.945 0.25 95.125 0.25 C96.125 1.25 96.125 1.25 96.24804783 3.46577549 C96.24712604 4.45301578 96.24620424 5.44025606 96.24525452 6.45741272 C96.24731651 8.15071968 96.24731651 8.15071968 96.24942017 9.87823486 C96.24402725 11.75234039 96.24402725 11.75234039 96.23852539 13.66430664 C96.23867142 14.97143112 96.23881744 16.2785556 96.2389679 17.62528992 C96.23925586 21.22017099 96.23335928 24.81501897 96.22639394 28.40989232 C96.22016026 32.16286252 96.21955659 35.9158334 96.21836853 39.66880798 C96.21525526 46.78030826 96.20704192 53.89179325 96.19701904 61.00328678 C96.18585778 69.09747066 96.18034742 77.19165526 96.17532361 85.28584492 C96.16485931 101.94057225 96.14725994 118.59528418 96.125 135.25 C88.57458249 139.02520875 75.10240469 137.00788888 67.125 135.25 C62.73957239 132.22260566 61.27494843 128.57976847 59.30810547 123.81982422 C57.04415648 118.90229903 54.03709771 114.38652997 51.17758179 109.7986145 C49.29805034 106.76695121 47.46021241 103.71018933 45.6171875 100.65625 C41.33755678 93.58548774 37.02001947 86.53845306 32.6875 79.5 C31.76795532 78.00484863 31.76795532 78.00484863 30.82983398 76.47949219 C25.63357392 68.04486227 20.37590518 59.65144828 15.125 51.25 C14.795 78.97 14.465 106.69 14.125 135.25 C10.87701257 136.33266248 8.76603173 136.28436186 5.36328125 136.12890625 C4.24501953 136.08056641 3.12675781 136.03222656 1.97460938 135.98242188 C0.80736328 135.92634766 -0.35988281 135.87027344 -1.5625 135.8125 C-2.74134766 135.76029297 -3.92019531 135.70808594 -5.13476562 135.65429688 C-8.04844094 135.52453806 -10.96178078 135.38956868 -13.875 135.25 C-13.89832844 117.79584265 -13.9159789 100.34169015 -13.92681217 82.88752079 C-13.93197525 74.78381391 -13.93901816 66.68011669 -13.95043945 58.57641602 C-13.96038594 51.51577878 -13.96685334 44.45514854 -13.96908849 37.39450449 C-13.97039566 33.65365542 -13.97348189 29.91282638 -13.98073006 26.17198372 C-13.98874324 22.00274887 -13.98899116 17.83354916 -13.98852539 13.66430664 C-13.99212067 12.41490295 -13.99571594 11.16549927 -13.99942017 9.87823486 C-13.9980455 8.74936356 -13.99667084 7.62049225 -13.99525452 6.45741272 C-13.99617631 5.47017243 -13.9970981 4.48293215 -13.99804783 3.46577549 C-13.67879637 -2.28312361 -4.3287682 0.01832283 0 0 Z " fill="#C78C3E" transform="translate(23.875,418.75)"/>
<path d="M0 0 C1.06992187 0.05220703 2.13984375 0.10441406 3.2421875 0.15820312 C5.87013239 0.28725399 8.49763613 0.42219152 11.125 0.5625 C10.96128906 1.67496094 10.79757812 2.78742188 10.62890625 3.93359375 C9.75535633 11.79554302 10.02044153 19.72673761 10.0625 27.625 C10.0675242 29.27018093 10.07208548 30.91536335 10.07617188 32.56054688 C10.08710658 36.56123498 10.1043207 40.56185088 10.125 44.5625 C10.64594238 44.15620361 11.16688477 43.74990723 11.70361328 43.33129883 C20.69581208 36.43105678 29.58764342 32.82652098 41.0703125 33.81640625 C53.39085137 35.56522954 63.85207208 39.97037265 71.9453125 49.765625 C81.88502092 64.05083409 84.80301959 80.42808972 82.4375 97.5 C80.60932377 107.35681031 76.74502993 116.03044695 70.125 123.5625 C69.55136719 124.25214844 68.97773437 124.94179688 68.38671875 125.65234375 C61.85431882 132.91507411 52.60538258 137.16181047 42.83984375 137.765625 C31.11837014 137.91108279 20.94625943 137.05213314 12.125 128.5625 C11.465 127.5725 10.805 126.5825 10.125 125.5625 C10.125 128.5325 10.125 131.5025 10.125 134.5625 C4.70460999 135.78347315 -0.52928553 135.74642788 -6.0625 135.75 C-7.07248047 135.76224609 -8.08246094 135.77449219 -9.12304688 135.78710938 C-10.08662109 135.78904297 -11.05019531 135.79097656 -12.04296875 135.79296875 C-12.92235107 135.79707764 -13.8017334 135.80118652 -14.70776367 135.80541992 C-16.875 135.5625 -16.875 135.5625 -18.875 133.5625 C-18.5717523 131.89009762 -18.22860395 130.22498403 -17.875 128.5625 C-17.71237539 125.35564478 -17.7384215 122.14915209 -17.74560547 118.9387207 C-17.74385315 117.97559967 -17.74210083 117.01247864 -17.74029541 116.02017212 C-17.73590085 112.84285674 -17.73880578 109.66559718 -17.7421875 106.48828125 C-17.74151394 104.28061411 -17.74054348 102.07294704 -17.73928833 99.86528015 C-17.73781475 95.24278048 -17.73995567 90.62030015 -17.74462891 85.99780273 C-17.75033601 80.06241734 -17.74703884 74.12707706 -17.74105644 68.19169331 C-17.73745024 63.63565223 -17.73858952 59.07962194 -17.74118423 54.52358055 C-17.74185282 52.33423037 -17.74102746 50.14487922 -17.73870468 47.95553017 C-17.73617612 44.90302545 -17.74002122 41.85059487 -17.74560547 38.7980957 C-17.74358124 37.88741837 -17.74155701 36.97674103 -17.73947144 36.03846741 C-17.61577038 31.66345901 -17.61577038 31.66345901 -18.875 27.5625 C-18.78370987 25.64246235 -18.62645687 23.7253967 -18.4375 21.8125 C-17.81898907 14.71548357 -17.77893995 7.68161674 -17.875 0.5625 C-11.90507591 -0.83185943 -6.06461279 -0.32488997 0 0 Z M9.125 1.5625 C10.125 3.5625 10.125 3.5625 10.125 3.5625 Z M15.875 62.75 C9.48375776 73.02163932 7.37178904 84.37103371 9.65625 96.34765625 C11.40934228 102.66450505 13.70039123 107.57872918 18.875 111.8125 C25.88650016 115.58792316 32.40074502 116.41976513 40.125 114.5625 C46.93601715 111.86949145 50.83901456 106.96152427 54.125 100.5625 C57.76308953 91.88705574 57.27840039 80.32013009 54.125 71.5625 C51.12404612 65.31145645 47.15691481 60.48697698 40.80078125 57.453125 C31.75413703 54.44197919 22.66606519 56.14757551 15.875 62.75 Z " fill="#C78C3E" transform="translate(474.875,419.4375)"/>
<path d="M0 0 C1.93879028 -0.00338379 1.93879028 -0.00338379 3.91674805 -0.00683594 C5.33512635 -0.00279773 6.75350242 0.00210598 8.171875 0.0078125 C8.88461578 0.01002808 9.59735657 0.01224365 10.33169556 0.01452637 C15.52866851 0.03341415 20.72516256 0.07881693 25.921875 0.1328125 C26.61593445 0.1390564 27.3099939 0.14530029 28.02508545 0.1517334 C32.55425918 0.19418469 37.0812425 0.27829876 41.609375 0.3828125 C42.75760742 0.39683105 43.90583984 0.41084961 45.08886719 0.42529297 C59.1098423 0.83671136 72.37344493 5.01784825 82.234375 15.3203125 C90.77503596 25.70713654 93.14607566 37.62466622 92.8359375 50.77734375 C91.73657404 61.66104197 87.66604963 72.08146928 79.609375 79.6953125 C62.23489247 93.36129204 41.91737114 91.42307282 20.921875 91.1328125 C21.251875 105.6528125 21.581875 120.1728125 21.921875 135.1328125 C18.39905386 136.01351779 15.8595746 136.24950239 12.28125 136.23046875 C11.21132813 136.22724609 10.14140625 136.22402344 9.0390625 136.22070312 C7.92789063 136.21232422 6.81671875 136.20394531 5.671875 136.1953125 C3.98191406 136.18854492 3.98191406 136.18854492 2.2578125 136.18164062 C-0.52088717 136.16986647 -3.29947909 136.1534209 -6.078125 136.1328125 C-7.01949755 133.30869485 -7.19537882 131.60363218 -7.17578125 128.68359375 C-7.17255859 127.83603516 -7.16933594 126.98847656 -7.16601562 126.11523438 C-7.15763672 125.23416016 -7.14925781 124.35308594 -7.140625 123.4453125 C-7.13611328 122.55263672 -7.13160156 121.65996094 -7.12695312 120.74023438 C-7.11517483 118.53769263 -7.09872664 116.33528651 -7.078125 114.1328125 C-7.738125 114.1328125 -8.398125 114.1328125 -9.078125 114.1328125 C-8.41145833 112.79947917 -7.74479167 111.46614583 -7.078125 110.1328125 C-6.97189882 107.51777388 -6.93853388 104.93583663 -6.953125 102.3203125 C-6.9543335 101.46864502 -6.95554199 100.61697754 -6.95678711 99.73950195 C-6.99079746 93.6171165 -7.14513237 87.50171786 -7.33984375 81.3828125 C-8.27597247 51.7825883 -8.27597247 51.7825883 -7.48461914 38.51782227 C-6.94275243 29.1326909 -7.02544713 19.75559165 -7.11547852 10.359375 C-7.12377686 9.1734375 -7.1320752 7.9875 -7.140625 6.765625 C-7.15222656 5.70230957 -7.16382813 4.63899414 -7.17578125 3.54345703 C-6.9848688 -1.16921688 -4.06486361 0.00398404 0 0 Z M20.921875 24.1328125 C19.20200985 27.57254281 19.92783441 31.52152368 20.04296875 35.296875 C20.06657974 36.20408295 20.09019073 37.11129089 20.11451721 38.04598999 C20.19123021 40.95008701 20.27522165 43.85392247 20.359375 46.7578125 C20.41258804 48.72394544 20.46532849 50.69009123 20.51757812 52.65625 C20.64685569 57.48193718 20.78266226 62.30740212 20.921875 67.1328125 C24.90527805 67.23255102 28.88818608 67.30468448 32.87255859 67.35253906 C34.88535127 67.38227295 36.89779634 67.43312979 38.91015625 67.484375 C48.15447159 67.57728269 53.92094607 66.95978799 60.796875 60.3828125 C64.61031789 54.55048808 65.78152393 48.05029997 64.921875 41.1328125 C63.59867628 35.56090537 61.47921703 31.75797093 56.921875 28.1328125 C50.95330881 25.14852941 45.80863482 23.99972822 39.18359375 24.03515625 C37.58354492 24.03999023 37.58354492 24.03999023 35.95117188 24.04492188 C34.84837891 24.05330078 33.74558594 24.06167969 32.609375 24.0703125 C30.92618164 24.07708008 30.92618164 24.07708008 29.20898438 24.08398438 C26.4465599 24.09573937 23.68424502 24.11217173 20.921875 24.1328125 Z " fill="#101919" transform="translate(621.078125,418.8671875)"/>
<path d="M0 0 C7.73631501 7.59089556 10.22389145 16.04481374 10.34057617 26.74462891 C10.35099375 29.73906849 10.32402668 32.73230842 10.29296875 35.7265625 C10.28736255 37.32652384 10.2830973 38.92649038 10.28010559 40.52645874 C10.26873728 44.70549126 10.23934079 48.88420314 10.20599365 53.06311035 C10.17511835 57.34020655 10.16156321 61.61735535 10.14648438 65.89453125 C10.11446194 74.26318324 10.06176121 82.6315146 10 91 C1.42 91.33 -7.16 91.66 -16 92 C-16.495 87.545 -16.495 87.545 -17 83 C-18.4540625 84.36125 -18.4540625 84.36125 -19.9375 85.75 C-29.34573157 93.82237719 -40.0108692 94.71960485 -52 94 C-61.11392309 92.44480108 -68.93594417 89.21130964 -75 82 C-80.46159114 72.78701293 -81.18743124 63.6045662 -79.3125 53.0625 C-78.23413818 48.87724957 -76.37366371 46.76027031 -73 44 C-71.63875 42.7315625 -71.63875 42.7315625 -70.25 41.4375 C-58.12088737 31.64209005 -40.3783582 30.79499732 -25.4375 30.9375 C-24.06754883 30.94426758 -24.06754883 30.94426758 -22.66992188 30.95117188 C-20.44654262 30.9628126 -18.22330879 30.97916149 -16 31 C-16.58599131 25.68906819 -17.11307929 23.63615164 -21 20 C-21 18.68 -21 17.36 -21 16 C-22.32 16 -23.64 16 -25 16 C-25 15.01 -25 14.02 -25 13 C-27.54232342 12.91847656 -30.08199202 12.85926284 -32.625 12.8125 C-33.69427734 12.77479492 -33.69427734 12.77479492 -34.78515625 12.73632812 C-39.57477663 12.67041592 -43.04269189 13.02351467 -47 16 C-48.98 20.455 -48.98 20.455 -51 25 C-59.25 25 -67.5 25 -76 25 C-74.90048997 15.10440977 -72.72448741 7.06271034 -65.3125 0.0625 C-47.2832133 -13.88468405 -18.10503135 -13.91292677 0 0 Z M-20 17 C-19.67 17.99 -19.34 18.98 -19 20 C-19 19.01 -19 18.02 -19 17 C-19.33 17 -19.66 17 -20 17 Z M-51.5 54.75 C-54.05476539 58.58214808 -54.2917585 62.20776921 -53.5625 66.6875 C-51.13605538 70.27863804 -48.07935367 71.70329823 -44 73 C-36.67633618 74.04808616 -29.06030351 72.70016862 -22.625 69.125 C-18.87440309 66.0888025 -16.9348266 63.72512355 -16 59 C-15.93451508 57.41788427 -15.91421619 55.83329919 -15.9375 54.25 C-15.94652344 53.45078125 -15.95554688 52.6515625 -15.96484375 51.828125 C-15.97644531 51.22484375 -15.98804688 50.6215625 -16 50 C-19.81235104 49.91190799 -23.62443553 49.8592451 -27.4375 49.8125 C-28.50677734 49.78736328 -29.57605469 49.76222656 -30.67773438 49.73632812 C-38.32172556 49.66619977 -45.10221215 50.2715485 -51.5 54.75 Z " fill="#C78C3E" transform="translate(214,463)"/>
<path d="M0 0 C9.86248956 10.40777144 12.9299815 23.78721803 13.625 37.71484375 C13.295 40.68484375 12.965 43.65484375 12.625 46.71484375 C-9.485 47.04484375 -31.595 47.37484375 -54.375 47.71484375 C-52.50388309 54.75386641 -52.50388309 54.75386641 -50.375 61.71484375 C-49.715 61.71484375 -49.055 61.71484375 -48.375 61.71484375 C-47.776875 62.33359375 -47.17875 62.95234375 -46.5625 63.58984375 C-42.35826977 67.67395311 -38.1485197 68.00874108 -32.4375 68.02734375 C-30.66052734 68.05248047 -30.66052734 68.05248047 -28.84765625 68.078125 C-23.80617645 67.5507261 -20.52567109 66.02989643 -17.1875 62.21484375 C-16.589375 61.38984375 -15.99125 60.56484375 -15.375 59.71484375 C-13.63936668 57.53520364 -12.85361829 56.7919017 -10.0625 56.3425293 C-8.7321875 56.34700073 -8.7321875 56.34700073 -7.375 56.3515625 C-6.405625 56.35220703 -5.43625 56.35285156 -4.4375 56.35351562 C-2.9215625 56.37768555 -2.9215625 56.37768555 -1.375 56.40234375 C-0.364375 56.39912109 0.64625 56.39589844 1.6875 56.39257812 C9.22428571 56.44770089 9.22428571 56.44770089 12.625 58.71484375 C7.47897179 72.05072111 2.19649717 80.89955446 -11.359375 87.07421875 C-26.62994972 92.7697304 -42.7081188 92.28140955 -57.5625 85.52734375 C-68.48104249 79.6306309 -76.49070482 70.35722945 -80.25 58.46484375 C-84.7351631 42.00032099 -83.41392935 23.58629471 -75.21484375 8.53125 C-68.25376656 -2.12466646 -58.40990089 -8.61836616 -46.3046875 -12.19140625 C-29.6524226 -15.56626527 -12.62356512 -11.48393771 0 0 Z M-48.375 12.71484375 C-48.375 13.37484375 -48.375 14.03484375 -48.375 14.71484375 C-49.035 14.71484375 -49.695 14.71484375 -50.375 14.71484375 C-51.05095315 16.12710301 -51.71540059 17.5448728 -52.375 18.96484375 C-52.74625 19.75375 -53.1175 20.54265625 -53.5 21.35546875 C-54.60681252 23.92050945 -54.60681252 23.92050945 -54.375 27.71484375 C-41.175 27.71484375 -27.975 27.71484375 -14.375 27.71484375 C-15.32886987 21.03775465 -16.22154398 16.79839557 -20.9609375 12.1640625 C-29.3576452 5.87538901 -39.94655116 7.42640526 -48.375 12.71484375 Z " fill="#101A1A" transform="translate(944.375,466.28515625)"/>
<path d="M0 0 C1.09731445 0.00676758 1.09731445 0.00676758 2.21679688 0.01367188 C3.99873419 0.02531852 5.78062863 0.04324809 7.5625 0.0625 C7.5625 0.7225 7.5625 1.3825 7.5625 2.0625 C8.861875 2.289375 10.16125 2.51625 11.5 2.75 C23.02517344 5.35129307 31.58560662 12.60807708 37.875 22.375 C46.28920439 36.87712875 47.12717029 52.77195677 43.5625 69.0625 C39.60945883 82.3561949 31.46534171 92.05034971 19.5625 99.0625 C5.83383019 105.43718518 -10.16484519 106.21382453 -24.4375 101.0625 C-37.27132198 95.37771979 -46.44328166 87.00482607 -51.6875 73.875 C-56.77825386 58.60273843 -56.57688837 42.97509291 -50.4375 28.0625 C-44.43308785 16.56025141 -36.05069071 7.46083564 -23.59765625 3.05859375 C-15.74721458 0.82945599 -8.13600747 -0.09676862 0 0 Z M-22.328125 30.12890625 C-28.17062552 38.73666794 -29.10307637 48.81234173 -27.8125 58.9375 C-26.18417465 67.40891414 -23.72783607 73.05932819 -16.4375 78.0625 C-10.11107868 81.59069651 -3.93796807 82.32491339 3.02734375 80.37109375 C9.99672519 77.59957601 13.64450546 73.35681002 16.875 66.75 C20.5390889 56.84948224 19.86071227 44.83294707 15.69140625 35.23046875 C12.66432366 29.41721326 9.29627056 26.92938528 3.5625 24.0625 C-5.8209281 21.21328094 -15.53730857 22.70671226 -22.328125 30.12890625 Z " fill="#C78C3E" transform="translate(400.4375,452.9375)"/>
<path d="M0 0 C27.312771 -3.33261218 27.312771 -3.33261218 34.69482422 1.91601562 C38.90395965 6.78146115 41.42516818 12.35758817 43.80175781 18.28857422 C45.68045817 22.53976537 48.28656023 26.24333146 51 30 C51.32685791 29.48203857 51.65371582 28.96407715 51.99047852 28.43041992 C53.51427407 26.01597966 55.03838642 23.60173952 56.5625 21.1875 C57.07619141 20.37345703 57.58988281 19.55941406 58.11914062 18.72070312 C59.18440463 17.03348374 60.26443751 15.35551508 61.35766602 13.6862793 C63.0732196 10.9953939 63.0732196 10.9953939 64.42163086 7.93286133 C66.02617552 4.72919888 67.37044274 2.44537942 70 0 C75.20450167 -1.34237854 80.14150914 -1.04781774 85.4375 -0.6875 C86.85072075 -0.6322543 88.26414922 -0.58207594 89.67773438 -0.53710938 C93.12284202 -0.41654286 96.56008807 -0.22720896 100 0 C98.42834116 4.13350604 96.5190503 7.24975426 93.875 10.8125 C86.80775817 20.47636673 80.23465542 30.48605253 73.67675781 40.5 C72.67996921 41.98618453 71.65282249 43.45376502 70.56542969 44.875 C69.25302404 46.51442302 69.25302404 46.51442302 68 49 C69.11252548 52.6928239 70.93005748 55.5608097 73.17578125 58.66796875 C74.10898193 59.97193604 74.10898193 59.97193604 75.06103516 61.30224609 C76.02082275 62.63763428 76.02082275 62.63763428 77 64 C78.204781 65.72319603 79.40664275 67.44843703 80.60546875 69.17578125 C81.19650391 70.02333984 81.78753906 70.87089844 82.39648438 71.74414062 C83.603493 73.47501995 84.80919554 75.20681069 86.01367188 76.93945312 C88.89569158 81.06792262 91.82364942 85.09064544 95 89 C96.10440079 90.54768093 97.1891635 92.10963965 98.25 93.6875 C98.77078125 94.45449219 99.2915625 95.22148438 99.828125 96.01171875 C101 98 101 98 101 100 C90.66666667 100 80.33333333 100 70 100 C68.4340505 98.0911197 67.09327676 96.24523676 65.75 94.1875 C65.16001221 93.30868164 65.16001221 93.30868164 64.55810547 92.41210938 C63.35885236 90.61638436 62.17655684 88.8106622 61 87 C60.32710937 85.96488281 59.65421875 84.92976562 58.9609375 83.86328125 C57.28761954 81.25361729 55.63084286 78.63638845 54 76 C53.44054687 75.113125 52.88109375 74.22625 52.3046875 73.3125 C51 71 51 71 51 69 C50.34 69 49.68 69 49 69 C48.74114014 69.70286133 48.48228027 70.40572266 48.21557617 71.12988281 C46.13146986 76.05070102 43.22864881 80.48234903 40.39770508 85.00341797 C39.67349313 86.16900003 38.9589464 87.34064249 38.25415039 88.51806641 C37.22951269 90.22873685 36.17172955 91.91941553 35.11328125 93.609375 C34.49235596 94.61967773 33.87143066 95.62998047 33.23168945 96.67089844 C29.65852393 100.40003081 25.92639997 99.92704813 21.00219727 100.11352539 C20.03338623 100.10828857 19.0645752 100.10305176 18.06640625 100.09765625 C16.47602539 100.09282227 16.47602539 100.09282227 14.85351562 100.08789062 C13.76748047 100.07951172 12.68144531 100.07113281 11.5625 100.0625 C10.44939453 100.05798828 9.33628906 100.05347656 8.18945312 100.04882812 C5.45957899 100.03711193 2.72981826 100.02070699 0 100 C1.5445472 96.71771735 3.40459982 93.76400998 5.4140625 90.74609375 C6.09339844 89.72580078 6.77273438 88.70550781 7.47265625 87.65429688 C8.18292969 86.59275391 8.89320313 85.53121094 9.625 84.4375 C10.31207031 83.40302734 10.99914062 82.36855469 11.70703125 81.30273438 C16.30804572 74.40984496 21.08100579 67.66897618 26 61 C27.18807991 59.37542394 28.37567618 57.75049392 29.5625 56.125 C30.30693359 55.10792969 30.30693359 55.10792969 31.06640625 54.0703125 C32.32629405 51.27641906 31.81891254 49.92989899 31 47 C29.69934932 44.60744328 29.69934932 44.60744328 28.0078125 42.26171875 C27.39019043 41.36662598 26.77256836 40.4715332 26.13623047 39.54931641 C25.47252441 38.60491699 24.80881836 37.66051758 24.125 36.6875 C23.44969238 35.71216309 22.77438477 34.73682617 22.07861328 33.73193359 C20.05905798 30.81660395 18.02973869 27.90824446 16 25 C14.41574255 22.71298918 12.83506716 20.42358871 11.25732422 18.13208008 C10.37088035 16.84499865 9.48208959 15.55952859 8.59033203 14.27612305 C0 1.8570063 0 1.8570063 0 0 Z " fill="#101B1A" transform="translate(760,455)"/>
<path d="M0 0 C1.1653125 -0.00128906 2.330625 -0.00257813 3.53125 -0.00390625 C4.7584375 -0.00003906 5.985625 0.00382812 7.25 0.0078125 C9.09078125 0.00201172 9.09078125 0.00201172 10.96875 -0.00390625 C12.71671875 -0.00197266 12.71671875 -0.00197266 14.5 0 C15.57765625 0.00112793 16.6553125 0.00225586 17.765625 0.00341797 C20.25 0.1328125 20.25 0.1328125 21.25 1.1328125 C21.34629597 2.87907774 21.37187539 4.62927155 21.37025452 6.37818909 C21.37162918 7.51547455 21.37300385 8.65276001 21.37442017 9.82450867 C21.37082489 11.08326309 21.36722961 12.34201752 21.36352539 13.63891602 C21.36367142 14.95579407 21.36381744 16.27267212 21.3639679 17.62945557 C21.36425587 21.25119518 21.35835924 24.87290196 21.35139394 28.49463391 C21.3451603 32.27563134 21.34455659 36.05662945 21.34336853 39.83763123 C21.34025524 47.0022554 21.33204189 54.1668644 21.32201904 61.33148187 C21.31085782 69.48612412 21.30534743 77.64076707 21.30032361 85.79541504 C21.28985928 102.57455783 21.27151383 119.35367969 21.25 136.1328125 C12.34 136.1328125 3.43 136.1328125 -5.75 136.1328125 C-7.03623736 133.56033779 -6.87587245 131.73120551 -6.87698364 128.84983826 C-6.87980347 127.7294516 -6.88262329 126.60906494 -6.88552856 125.45472717 C-6.88350433 124.21984055 -6.8814801 122.98495392 -6.87939453 121.71264648 C-6.88114685 120.41673584 -6.88289917 119.1208252 -6.88470459 117.78564453 C-6.88927282 114.22588253 -6.88749198 110.66614943 -6.8843255 107.1063869 C-6.8817993 103.38725375 -6.88414012 99.66812312 -6.88571167 95.94898987 C-6.88753237 89.7037003 -6.88512941 83.45842254 -6.88037109 77.21313477 C-6.87492628 69.98312542 -6.87669311 62.75314427 -6.8821975 55.5231356 C-6.88672861 49.32440239 -6.88737926 43.12567769 -6.88475883 36.92694336 C-6.88319635 33.22078079 -6.88300155 29.5146315 -6.88629532 25.80846977 C-6.88970784 21.68015739 -6.88498436 17.55189398 -6.87939453 13.42358398 C-6.88141876 12.18667313 -6.88344299 10.94976227 -6.88552856 9.67536926 C-6.88129883 7.99901901 -6.88129883 7.99901901 -6.87698364 6.2888031 C-6.87660662 5.3115348 -6.87622959 4.33426649 -6.87584114 3.327384 C-6.62351991 -1.07290177 -3.77185163 0.00394781 0 0 Z " fill="#111B1B" transform="translate(974.75,418.8671875)"/>
<path d="M0 0 C0 8.58 0 17.16 0 26 C-2.124375 26.0825 -4.24875 26.165 -6.4375 26.25 C-14.00925157 26.80122964 -19.96705429 27.96705429 -25.4375 33.4375 C-30.49141192 41.72591554 -30.1482878 50.80223499 -30.02734375 60.2578125 C-30.01470582 62.20182119 -30.00234426 64.1458317 -29.99023438 66.08984375 C-29.96539128 69.11578191 -29.93731726 72.14162274 -29.90405273 75.16748047 C-29.87375959 78.11426391 -29.85605788 81.06092263 -29.83984375 84.0078125 C-29.82638412 84.9058963 -29.8129245 85.8039801 -29.79905701 86.72927856 C-29.79567825 87.58061371 -29.7922995 88.43194885 -29.78881836 89.30908203 C-29.77763222 90.41752975 -29.77763222 90.41752975 -29.76622009 91.54837036 C-30 94 -30 94 -32 101 C-40.58 101 -49.16 101 -58 101 C-58 68 -58 35 -58 1 C-49.09 1 -40.18 1 -31 1 C-30.67 4.3 -30.34 7.6 -30 11 C-29.67 11.33 -29.34 11.66 -29 12 C-28.319375 11.278125 -27.63875 10.55625 -26.9375 9.8125 C-18.4827648 1.45276183 -12.15267468 0 0 0 Z M-31 13 C-31 16 -31 16 -31 16 Z " fill="#C88D3F" transform="translate(343,454)"/>
<path d="M0 0 C9.24 0 18.48 0 28 0 C28 32.67 28 65.34 28 99 C22.66571049 100.0668579 17.78788826 100.22050197 12.375 100.25 C11.42109375 100.270625 10.4671875 100.29125 9.484375 100.3125 C8.56914063 100.31765625 7.65390625 100.3228125 6.7109375 100.328125 C5.87868652 100.3374707 5.04643555 100.34681641 4.18896484 100.35644531 C2 100 2 100 0.14306641 98.79199219 C-1 97 -1 97 -0.57853699 94.9513092 C0.20702542 90.94389459 0.13091413 87.06084703 0.11352539 82.98706055 C0.11367142 82.08900192 0.11381744 81.1909433 0.1139679 80.26567078 C0.11327287 77.30599528 0.10549965 74.34638321 0.09765625 71.38671875 C0.09579061 69.33120254 0.0943674 67.27568588 0.09336853 65.22016907 C0.08955482 59.81642423 0.0797343 54.41270637 0.06866455 49.00897217 C0.0584258 43.49231328 0.05386563 37.97565003 0.04882812 32.45898438 C0.03811101 21.63930917 0.02052348 10.81966105 0 0 Z " fill="#C88D40" transform="translate(569,455)"/>
<path d="M0 0 C9.9 0 19.8 0 30 0 C30 6 30 6 29.50610352 7.87339783 C28.70879356 11.22362369 28.87897499 14.60142841 28.90234375 18.02563477 C28.90453415 19.23360214 28.90453415 19.23360214 28.9067688 20.4659729 C28.91056937 22.21148353 28.91668023 23.95699032 28.92483521 25.70248604 C28.9376019 28.46344397 28.94411506 31.22435386 28.94897461 33.9853363 C28.96040081 39.84441243 28.97964776 45.70344897 29 51.5625 C29.0235793 58.35500239 29.04397519 65.14748215 29.05593872 71.94001579 C29.0624316 74.66272371 29.07493868 77.38536249 29.08764648 80.10804749 C29.09127828 81.77328429 29.0946301 83.43852175 29.09765625 85.10375977 C29.10282257 85.86280106 29.10798889 86.62184235 29.11331177 87.40388489 C29.11362974 90.54648699 29.00178369 92.99464894 28 96 C28.66 96.33 29.32 96.66 30 97 C29.34 97.99 28.68 98.98 28 100 C25.34204102 100.37231445 25.34204102 100.37231445 22.00390625 100.36328125 C20.80572266 100.36263672 19.60753906 100.36199219 18.37304688 100.36132812 C17.11556641 100.34521484 15.85808594 100.32910156 14.5625 100.3125 C13.30888672 100.31572266 12.05527344 100.31894531 10.76367188 100.32226562 C1.40038162 100.26692108 1.40038162 100.26692108 -2 98 C-1.01 98 -0.02 98 1 98 C0.67 65.66 0.34 33.32 0 0 Z " fill="#101A1A" transform="translate(722,455)"/>
<path d="M0 0 C0 32.67 0 65.34 0 99 C-4.11862291 101.05931145 -9.47359045 100.18489262 -14 100.1875 C-15.67835938 100.20586914 -15.67835938 100.20586914 -17.390625 100.22460938 C-18.99164063 100.22750977 -18.99164063 100.22750977 -20.625 100.23046875 C-21.60726562 100.23457764 -22.58953125 100.23868652 -23.6015625 100.24291992 C-26 100 -26 100 -28 98 C-28.19310436 95.56954041 -28.26238983 93.25357905 -28.24291992 90.82250977 C-28.24481827 90.0822052 -28.24671661 89.34190063 -28.24867249 88.5791626 C-28.25239336 86.11647122 -28.24164098 83.65407178 -28.23046875 81.19140625 C-28.22927544 79.4685825 -28.22882411 77.7457581 -28.2290802 76.02293396 C-28.22751204 72.39537528 -28.2192099 68.76791479 -28.20581055 65.14038086 C-28.18903603 60.54617115 -28.18499006 55.95207155 -28.18575573 51.35783482 C-28.18547992 47.78760268 -28.17993066 44.21739348 -28.17275429 40.64716911 C-28.16962115 38.95752066 -28.1676131 37.26786965 -28.16686058 35.57821846 C-28.15579321 23.68929929 -27.72456026 11.86675857 -27 0 C-23.06283294 -0.19530685 -19.12531752 -0.38075458 -15.1875 -0.5625 C-14.06794922 -0.61857422 -12.94839844 -0.67464844 -11.79492188 -0.73242188 C-10.72177734 -0.78076172 -9.64863281 -0.82910156 -8.54296875 -0.87890625 C-7.0583313 -0.94960327 -7.0583313 -0.94960327 -5.54370117 -1.02172852 C-3 -1 -3 -1 0 0 Z " fill="#C88E40" transform="translate(268,455)"/>
<path d="M0 0 C1.07185547 -0.00128906 2.14371094 -0.00257813 3.24804688 -0.00390625 C4.37146484 -0.00003906 5.49488281 0.00382812 6.65234375 0.0078125 C7.77962891 0.00394531 8.90691406 0.00007813 10.06835938 -0.00390625 C11.13892578 -0.00261719 12.20949219 -0.00132812 13.3125 0 C14.79375366 0.00169189 14.79375366 0.00169189 16.30493164 0.00341797 C18.58984375 0.1328125 18.58984375 0.1328125 19.58984375 1.1328125 C19.68611488 2.86640848 19.71171943 4.60395896 19.71009827 6.34022522 C19.71216026 8.03353218 19.71216026 8.03353218 19.71426392 9.76104736 C19.708871 11.63515289 19.708871 11.63515289 19.70336914 13.54711914 C19.70351517 14.85424362 19.70366119 16.1613681 19.70381165 17.50810242 C19.70409961 21.10298349 19.69820303 24.69783147 19.69123769 28.29270482 C19.68500401 32.04567502 19.68440034 35.7986459 19.68321228 39.55162048 C19.68009901 46.66312076 19.67188567 53.77460575 19.66186279 60.88609928 C19.65070153 68.98028316 19.64519117 77.07446776 19.64016736 85.16865742 C19.62970306 101.82338475 19.61210369 118.47809668 19.58984375 135.1328125 C12.03942624 138.90802125 -1.43275156 136.89070138 -9.41015625 135.1328125 C-13.79558386 132.10541816 -15.26020782 128.46258097 -17.22705078 123.70263672 C-19.49099977 118.78511153 -22.49805854 114.26934247 -25.35757446 109.681427 C-27.23710591 106.64976371 -29.07494384 103.59300183 -30.91796875 100.5390625 C-35.19759947 93.46830024 -39.51513678 86.42126556 -43.84765625 79.3828125 C-44.76720093 77.88766113 -44.76720093 77.88766113 -45.70532227 76.36230469 C-50.90158233 67.92767477 -56.15925107 59.53426078 -61.41015625 51.1328125 C-61.74015625 78.8528125 -62.07015625 106.5728125 -62.41015625 135.1328125 C-65.6031245 136.19713525 -67.61460566 136.17069586 -70.953125 136.01171875 C-72.02626953 135.96337891 -73.09941406 135.91503906 -74.20507812 135.86523438 C-75.32462891 135.80916016 -76.44417969 135.75308594 -77.59765625 135.6953125 C-78.72880859 135.64310547 -79.85996094 135.59089844 -81.02539062 135.53710938 C-83.82058905 135.40737443 -86.61543565 135.27240609 -89.41015625 135.1328125 C-89.41015625 134.8028125 -89.41015625 134.4728125 -89.41015625 134.1328125 C-81.16015625 134.1328125 -72.91015625 134.1328125 -64.41015625 134.1328125 C-64.41015625 104.7628125 -64.41015625 75.3928125 -64.41015625 45.1328125 C-59.88849269 47.39364428 -59.05470278 48.81541565 -56.53515625 53.0703125 C-56.18783447 53.65151855 -55.8405127 54.23272461 -55.48266602 54.83154297 C-52.82951864 59.30739344 -50.35670064 63.87571352 -47.8984375 68.4609375 C-45.83579761 72.16394454 -43.55298705 75.70608323 -41.25390625 79.265625 C-36.80869128 86.178311 -32.54816539 93.20729147 -28.35302734 100.27392578 C-23.99823719 107.59961072 -19.48337326 114.81644324 -14.91015625 122.0078125 C-14.28608887 122.98999756 -13.66202148 123.97218262 -13.01904297 124.98413086 C-10.49457773 129.2732919 -10.49457773 129.2732919 -7.41015625 133.1328125 C0.83984375 133.4628125 9.08984375 133.7928125 17.58984375 134.1328125 C17.58984375 90.5728125 17.58984375 47.0128125 17.58984375 2.1328125 C9.66984375 2.1328125 1.74984375 2.1328125 -6.41015625 2.1328125 C-6.41015625 29.5228125 -6.41015625 56.9128125 -6.41015625 85.1328125 C-6.74015625 85.1328125 -7.07015625 85.1328125 -7.41015625 85.1328125 C-7.41015625 57.4128125 -7.41015625 29.6928125 -7.41015625 1.1328125 C-4.81461791 -0.16495667 -2.90310098 0.00331215 0 0 Z " fill="#BD7A2A" transform="translate(100.41015625,418.8671875)"/>
<path d="M0 0 C3.56524799 3.30437618 5.32020867 6.44442866 5.7265625 11.359375 C5.47494534 16.35300789 3.59117744 19.40404398 0.16015625 22.96484375 C-3.88747725 26.53744936 -8.01933511 26.75865444 -13.2265625 26.62890625 C-18.44232081 26.02992341 -22.12684908 23.29873443 -25.4375 19.375 C-27.03381321 14.58606036 -27.26925756 10.20486662 -25.1875 5.625 C-18.43249303 -3.06000897 -9.99470394 -4.72476914 0 0 Z " fill="#111B1B" transform="translate(747.4375,417.625)"/>
<path d="M0 0 C0.02887236 3.81248426 0.04675492 7.6249407 0.0625 11.4375 C0.07087891 12.52611328 0.07925781 13.61472656 0.08789062 14.73632812 C0.09272461 16.28803711 0.09272461 16.28803711 0.09765625 17.87109375 C0.10551147 19.30859985 0.10551147 19.30859985 0.11352539 20.77514648 C0 23 0 23 -1 24 C-2.92667507 24.08748207 -4.85651861 24.10697334 -6.78515625 24.09765625 C-7.95498047 24.09443359 -9.12480469 24.09121094 -10.33007812 24.08789062 C-11.56177734 24.07951172 -12.79347656 24.07113281 -14.0625 24.0625 C-15.91584961 24.05573242 -15.91584961 24.05573242 -17.80664062 24.04882812 C-20.87114117 24.03699608 -23.93554721 24.02051173 -27 24 C-28.08889938 20.08200762 -28.09832961 16.5101329 -28.0625 12.4375 C-28.05798828 11.76525391 -28.05347656 11.09300781 -28.04882812 10.40039062 C-28.0363146 8.60023033 -28.01843115 6.80010943 -28 5 C-28 4.01 -28 3.02 -28 2 C-28 1.34 -28 0.68 -28 0 C-24.27129547 -0.19756803 -20.54203204 -0.38128099 -16.8125 -0.5625 C-15.75740234 -0.61857422 -14.70230469 -0.67464844 -13.61523438 -0.73242188 C-12.59365234 -0.78076172 -11.57207031 -0.82910156 -10.51953125 -0.87890625 C-9.58214111 -0.9260376 -8.64475098 -0.97316895 -7.67895508 -1.02172852 C-4.98697068 -0.99989432 -2.61483024 -0.61586406 0 0 Z " fill="#C78E40" transform="translate(597,420)"/>
<path d="M0 0 C0.02887236 3.81248426 0.04675492 7.6249407 0.0625 11.4375 C0.07087891 12.52611328 0.07925781 13.61472656 0.08789062 14.73632812 C0.09272461 16.28803711 0.09272461 16.28803711 0.09765625 17.87109375 C0.10551147 19.30859985 0.10551147 19.30859985 0.11352539 20.77514648 C0 23 0 23 -1 24 C-2.84159023 24.09959621 -4.68696967 24.13080411 -6.53125 24.1328125 C-7.65144531 24.13410156 -8.77164062 24.13539063 -9.92578125 24.13671875 C-11.10527344 24.13285156 -12.28476563 24.12898438 -13.5 24.125 C-15.26923828 24.13080078 -15.26923828 24.13080078 -17.07421875 24.13671875 C-18.75451172 24.13478516 -18.75451172 24.13478516 -20.46875 24.1328125 C-21.50451172 24.13168457 -22.54027344 24.13055664 -23.60742188 24.12939453 C-26 24 -26 24 -27 23 C-27.08713831 21.29227642 -27.10700007 19.58101351 -27.09765625 17.87109375 C-27.09443359 16.83662109 -27.09121094 15.80214844 -27.08789062 14.73632812 C-27.07951172 13.64771484 -27.07113281 12.55910156 -27.0625 11.4375 C-27.05798828 10.34501953 -27.05347656 9.25253906 -27.04882812 8.12695312 C-27.03699826 5.41791505 -27.02051543 2.70898401 -27 0 C-23.25044125 -0.19713345 -19.50034696 -0.3810316 -15.75 -0.5625 C-14.68652344 -0.61857422 -13.62304688 -0.67464844 -12.52734375 -0.73242188 C-10.99013672 -0.80493164 -10.99013672 -0.80493164 -9.421875 -0.87890625 C-8.47924805 -0.9260376 -7.53662109 -0.97316895 -6.56542969 -1.02172852 C-4.17740544 -1.00150258 -2.27325608 -0.69460602 0 0 Z " fill="#C98F40" transform="translate(268,420)"/>
<path d="M0 0 C1.1653125 -0.00128906 2.330625 -0.00257813 3.53125 -0.00390625 C4.7584375 -0.00003906 5.985625 0.00382812 7.25 0.0078125 C9.09078125 0.00201172 9.09078125 0.00201172 10.96875 -0.00390625 C12.71671875 -0.00197266 12.71671875 -0.00197266 14.5 0 C15.57765625 0.00112793 16.6553125 0.00225586 17.765625 0.00341797 C20.25 0.1328125 20.25 0.1328125 21.25 1.1328125 C21.34629597 2.87907774 21.37187539 4.62927155 21.37025452 6.37818909 C21.37162918 7.51547455 21.37300385 8.65276001 21.37442017 9.82450867 C21.37082489 11.08326309 21.36722961 12.34201752 21.36352539 13.63891602 C21.36367142 14.95579407 21.36381744 16.27267212 21.3639679 17.62945557 C21.36425587 21.25119518 21.35835924 24.87290196 21.35139394 28.49463391 C21.3451603 32.27563134 21.34455659 36.05662945 21.34336853 39.83763123 C21.34025524 47.0022554 21.33204189 54.1668644 21.32201904 61.33148187 C21.31085782 69.48612412 21.30534743 77.64076707 21.30032361 85.79541504 C21.28985928 102.57455783 21.27151383 119.35367969 21.25 136.1328125 C12.34 136.1328125 3.43 136.1328125 -5.75 136.1328125 C-6.97601393 133.68078464 -6.87580897 132.09444627 -6.87698364 129.35250854 C-6.87980347 128.34320786 -6.88262329 127.33390717 -6.88552856 126.29402161 C-6.88249222 124.62650093 -6.88249222 124.62650093 -6.87939453 122.92529297 C-6.88114685 121.75766922 -6.88289917 120.59004547 -6.88470459 119.38703918 C-6.88835993 116.17803124 -6.88749065 112.96906433 -6.8843255 109.76005697 C-6.88179574 106.39921068 -6.8841415 103.03836715 -6.88571167 99.67752075 C-6.88753306 94.02654528 -6.88512942 88.37558286 -6.88037109 82.72460938 C-6.87494431 76.20478477 -6.87667969 69.68499151 -6.8821975 63.16516769 C-6.88674838 57.5624982 -6.88736905 51.95983811 -6.88475883 46.35716736 C-6.88320487 43.0135128 -6.88337396 39.66988466 -6.88629532 36.3262291 C-6.88884195 32.58969781 -6.88495211 28.85322608 -6.87939453 25.11669922 C-6.88243088 23.46739662 -6.88243088 23.46739662 -6.88552856 21.78477478 C-6.87001305 16.13820764 -6.59504888 10.71766343 -5.75 5.1328125 C-5.09 5.1328125 -4.43 5.1328125 -3.75 5.1328125 C-3.42 47.3728125 -3.09 89.6128125 -2.75 133.1328125 C4.51 133.4628125 11.77 133.7928125 19.25 134.1328125 C19.25 90.9028125 19.25 47.6728125 19.25 3.1328125 C6.875 3.6278125 6.875 3.6278125 -5.75 4.1328125 C-6.08 3.1428125 -6.41 2.1528125 -6.75 1.1328125 C-4.97550406 -0.64168344 -2.39982739 0.00251178 0 0 Z " fill="#040707" transform="translate(974.75,418.8671875)"/>
<path d="M0 0 C0 8.58 0 17.16 0 26 C-2.124375 26.0825 -4.24875 26.165 -6.4375 26.25 C-14.00925157 26.80122964 -19.96705429 27.96705429 -25.4375 33.4375 C-30.49141192 41.72591554 -30.1482878 50.80223499 -30.02734375 60.2578125 C-30.01470582 62.20182119 -30.00234426 64.1458317 -29.99023438 66.08984375 C-29.96539128 69.11578191 -29.93731726 72.14162274 -29.90405273 75.16748047 C-29.87375959 78.11426391 -29.85605788 81.06092263 -29.83984375 84.0078125 C-29.82638412 84.9058963 -29.8129245 85.8039801 -29.79905701 86.72927856 C-29.79567825 87.58061371 -29.7922995 88.43194885 -29.78881836 89.30908203 C-29.77763222 90.41752975 -29.77763222 90.41752975 -29.76622009 91.54837036 C-30 94 -30 94 -32 101 C-40.58 101 -49.16 101 -58 101 C-58 68 -58 35 -58 1 C-49.09 1 -40.18 1 -31 1 C-30.67 4.3 -30.34 7.6 -30 11 C-29.67 11.33 -29.34 11.66 -29 12 C-28.2575 11.236875 -27.515 10.47375 -26.75 9.6875 C-22.40963855 5.44578313 -22.40963855 5.44578313 -20 4 C-19.01 4.33 -18.02 4.66 -17 5 C-17.51949219 5.35191406 -18.03898437 5.70382812 -18.57421875 6.06640625 C-22.28444456 8.6930541 -25.28124905 11.06259443 -27.8125 14.875 C-28.8953125 16.421875 -28.8953125 16.421875 -30 18 C-30.99 18 -31.98 18 -33 18 C-33 13.05 -33 8.1 -33 3 C-40.59 3 -48.18 3 -56 3 C-56 34.68 -56 66.36 -56 99 C-48.08 99 -40.16 99 -32 99 C-32.02094727 97.32043213 -32.04189453 95.64086426 -32.06347656 93.91040039 C-32.12825288 88.33056709 -32.17406315 82.75078816 -32.20724869 77.17067814 C-32.22803026 73.7908972 -32.25617154 70.41152703 -32.30175781 67.03198242 C-32.35050659 63.1370985 -32.37302285 59.24279056 -32.390625 55.34765625 C-32.41127014 54.1473024 -32.43191528 52.94694855 -32.45318604 51.71022034 C-32.45546045 43.1244003 -30.61271398 37.52200496 -26.375 30.1875 C-20.91034142 25.15426183 -14.66915171 23.75862193 -7.375 23.75 C-5.60125 23.8325 -3.8275 23.915 -2 24 C-2 16.74 -2 9.48 -2 2 C-8.435 2.495 -8.435 2.495 -15 3 C-14.67 2.34 -14.34 1.68 -14 1 C-9.27657031 -0.47607178 -5.12992411 0 0 0 Z M-31 13 C-31 16 -31 16 -31 16 Z " fill="#C48130" transform="translate(343,454)"/>
<path d="M0 0 C0 32.67 0 65.34 0 99 C-2.60951236 100.30475618 -4.52701285 100.11301572 -7.4453125 100.09765625 C-9.05986328 100.09282227 -9.05986328 100.09282227 -10.70703125 100.08789062 C-11.83496094 100.07951172 -12.96289062 100.07113281 -14.125 100.0625 C-15.26066406 100.05798828 -16.39632812 100.05347656 -17.56640625 100.04882812 C-20.37765638 100.03701615 -23.1888023 100.02054507 -26 100 C-26 99.34 -26 98.68 -26 98 C-18.08 98 -10.16 98 -2 98 C-2 66.32 -2 34.64 -2 2 C-9.59 2 -17.18 2 -25 2 C-25 33.35 -25 64.7 -25 97 C-25.33 97 -25.66 97 -26 97 C-26 64.99 -26 32.98 -26 0 C-3 -1 -3 -1 0 0 Z " fill="#BD7726" transform="translate(268,455)"/>
<path d="M0 0 C9.24 0 18.48 0 28 0 C28 32.67 28 65.34 28 99 C22.66571049 100.0668579 17.78788826 100.22050197 12.375 100.25 C11.42109375 100.270625 10.4671875 100.29125 9.484375 100.3125 C8.56914063 100.31765625 7.65390625 100.3228125 6.7109375 100.328125 C5.87868652 100.3374707 5.04643555 100.34681641 4.18896484 100.35644531 C1.50781839 99.91985443 0.59477932 99.16795443 -1 97 C-0.6875 94.875 -0.6875 94.875 0 92 C0.03039708 90.60449768 0.02707456 89.20807073 0 87.8125 C-0.06716905 82.82519832 0.42142208 77.94890754 1 73 C1.33 73 1.66 73 2 73 C2 81.25 2 89.5 2 98 C9.92 98 17.84 98 26 98 C26 66.32 26 34.64 26 2 C18.08 2 10.16 2 2 2 C2 13.88 2 25.76 2 38 C0 36 0 36 -0.22705078 32.46826172 C-0.22673363 30.95536669 -0.21540633 29.44244912 -0.1953125 27.9296875 C-0.1924826 27.13345978 -0.18965271 26.33723206 -0.18673706 25.51687622 C-0.1755264 22.96943237 -0.15042062 20.42233789 -0.125 17.875 C-0.11497133 16.14974465 -0.10584528 14.42448381 -0.09765625 12.69921875 C-0.07728418 8.46590238 -0.03813823 4.23334305 0 0 Z " fill="#B1752D" transform="translate(569,455)"/>
<path d="M0 0 C9.9 0 19.8 0 30 0 C30 6.42105263 30 6.42105263 29 10 C28.79558956 11.51233491 28.61872637 13.02856652 28.46484375 14.546875 C28.37783203 15.39121094 28.29082031 16.23554688 28.20117188 17.10546875 C28.11416016 17.97816406 28.02714844 18.85085938 27.9375 19.75 C27.84662109 20.63816406 27.75574219 21.52632813 27.66210938 22.44140625 C27.43881362 24.6273542 27.21820147 26.81353865 27 29 C26.67 29 26.34 29 26 29 C26 20.09 26 11.18 26 2 C18.41 2 10.82 2 3 2 C3 33.68 3 65.36 3 98 C6.63 98 10.26 98 14 98 C14 98.33 14 98.66 14 99 C11.89722877 99.22197585 9.79267698 99.42713637 7.6875 99.625 C6.51574219 99.74101563 5.34398437 99.85703125 4.13671875 99.9765625 C1 100 1 100 -2 98 C-1.01 98 -0.02 98 1 98 C0.67 65.66 0.34 33.32 0 0 Z " fill="#090D0D" transform="translate(722,455)"/>
<path d="M0 0 C8.37822814 1.2969855 15.22200508 6.2977863 20.47265625 12.80859375 C29.60465914 25.91103268 31.72994053 40.4305352 30 56 C7.56 56 -14.88 56 -38 56 C-38 57.32 -38 58.64 -38 60 C-38.66 60 -39.32 60 -40 60 C-40.042721 58.33388095 -40.04063832 56.66617115 -40 55 C-39 54 -39 54 -36.29820251 53.87974548 C-34.48951439 53.8830764 -34.48951439 53.8830764 -32.64428711 53.88647461 C-31.64920387 53.88625557 -31.64920387 53.88625557 -30.63401794 53.8860321 C-28.43176044 53.88673119 -26.22958655 53.89452335 -24.02734375 53.90234375 C-22.50419664 53.90420794 -20.98104893 53.90563184 -19.457901 53.90663147 C-15.44162349 53.91045654 -11.42538192 53.92028672 -7.40911865 53.93133545 C-3.31376634 53.94154981 0.78159176 53.94612914 4.87695312 53.95117188 C12.91798528 53.961909 20.95898817 53.97898528 29 54 C28.70972731 50.96928926 28.41175489 47.93966309 28.109375 44.91015625 C28.02864746 44.05893188 27.94791992 43.20770752 27.86474609 42.33068848 C26.50519621 28.89380377 21.87245294 16.23087059 11.16796875 7.47265625 C7.673351 5.09883482 3.9478174 3.47129306 0 2 C0 1.34 0 0.68 0 0 Z " fill="#0B0F0F" transform="translate(927,457)"/>
<path d="M0 0 C2 1 2 1 2.8515625 3.06640625 C3.10679687 3.89011719 3.36203125 4.71382812 3.625 5.5625 C3.88539063 6.38878906 4.14578125 7.21507812 4.4140625 8.06640625 C4.60742188 8.70449219 4.80078125 9.34257813 5 10 C5.66 10 6.32 10 7 10 C7.8971875 10.928125 7.8971875 10.928125 8.8125 11.875 C13.01673023 15.95910936 17.2264803 16.29389733 22.9375 16.3125 C24.12214844 16.32925781 25.30679688 16.34601562 26.52734375 16.36328125 C31.56882355 15.83588235 34.84932891 14.31505268 38.1875 10.5 C38.785625 9.675 39.38375 8.85 40 8 C41.73563332 5.82035989 42.52138171 5.07705795 45.3125 4.62768555 C46.6428125 4.63215698 46.6428125 4.63215698 48 4.63671875 C48.969375 4.63736328 49.93875 4.63800781 50.9375 4.63867188 C52.4534375 4.6628418 52.4534375 4.6628418 54 4.6875 C55.010625 4.68427734 56.02125 4.68105469 57.0625 4.67773438 C64.59928571 4.73285714 64.59928571 4.73285714 68 7 C63.32513976 19.11485057 58.88925578 27.62126367 47 34 C44.66015625 33.71875 44.66015625 33.71875 43 33 C43.71285156 32.59910156 44.42570313 32.19820312 45.16015625 31.78515625 C55.12484208 25.87071958 60.18091801 19.80936599 64 9 C51.6589342 7.56831745 51.6589342 7.56831745 40.1875 10.7109375 C38.40526745 12.79881466 38.40526745 12.79881466 37.18359375 15.0546875 C35.65585218 17.56562909 34.80555573 18.0923202 32 19 C24.42912271 19.99807398 15.35374986 20.65793211 8.6875 16.5 C4.09175394 12.6732272 0.31905939 8.06297016 -0.3125 2 C-0.209375 1.34 -0.10625 0.68 0 0 Z " fill="#0B0F0E" transform="translate(889,518)"/>
<path d="M0 0 C0 8.58 0 17.16 0 26 C-2.124375 26.0825 -4.24875 26.165 -6.4375 26.25 C-14.00925157 26.80122964 -19.96705429 27.96705429 -25.4375 33.4375 C-30.49141192 41.72591554 -30.1482878 50.80223499 -30.02734375 60.2578125 C-30.01470582 62.20182119 -30.00234426 64.1458317 -29.99023438 66.08984375 C-29.96539128 69.11578191 -29.93731726 72.14162274 -29.90405273 75.16748047 C-29.87375959 78.11426391 -29.85605788 81.06092263 -29.83984375 84.0078125 C-29.82638412 84.9058963 -29.8129245 85.8039801 -29.79905701 86.72927856 C-29.77856558 91.89244551 -30.31668746 96.11071392 -32 101 C-34.66673742 101.02727345 -37.33318869 101.04696948 -40 101.0625 C-41.11568359 101.07506836 -41.11568359 101.07506836 -42.25390625 101.08789062 C-47.26148844 101.10966272 -52.04279032 100.71541549 -57 100 C-57 99.67 -57 99.34 -57 99 C-48.75 99 -40.5 99 -32 99 C-32.04640625 94.98972656 -32.0928125 90.97945312 -32.140625 86.84765625 C-32.16639029 83.628629 -32.18806669 80.40963129 -32.20700073 77.19055939 C-32.22803079 73.80415288 -32.25608215 70.41815381 -32.30175781 67.03198242 C-32.35050659 63.1370985 -32.37302285 59.24279056 -32.390625 55.34765625 C-32.41127014 54.1473024 -32.43191528 52.94694855 -32.45318604 51.71022034 C-32.45546045 43.1244003 -30.61271398 37.52200496 -26.375 30.1875 C-20.91034142 25.15426183 -14.66915171 23.75862193 -7.375 23.75 C-5.60125 23.8325 -3.8275 23.915 -2 24 C-2 16.74 -2 9.48 -2 2 C-8.435 2.495 -8.435 2.495 -15 3 C-14.67 2.34 -14.34 1.68 -14 1 C-9.27657031 -0.47607178 -5.12992411 0 0 0 Z " fill="#BA7626" transform="translate(343,454)"/>
<path d="M0 0 C8.20230462 -1.37104566 16.96798946 -2.66532508 25 0 C30.87211664 5.05028541 33.77632842 12.37474878 36.77148438 19.35986328 C38.44547718 22.957351 40.56531846 25.87782744 43 29 C44.87697789 26.04291742 46.75120033 23.08409734 48.625 20.125 C49.14707031 19.30257813 49.66914062 18.48015625 50.20703125 17.6328125 C50.99013672 16.3953125 50.99013672 16.3953125 51.7890625 15.1328125 C52.33191895 14.29830566 52.87477539 13.46379883 53.43408203 12.60400391 C55.06286655 10.02014638 55.06286655 10.02014638 56.24951172 7.15771484 C57.59503864 4.26931705 58.70340256 2.21851652 61 0 C65.67664802 -1.22412993 70.08242715 -0.94949712 74.875 -0.625 C76.13570312 -0.57988281 77.39640625 -0.53476562 78.6953125 -0.48828125 C81.80173693 -0.37061366 84.89842434 -0.20651754 88 0 C88 0.33 88 0.66 88 1 C79.75 1 71.5 1 63 1 C62.34 2.65 61.68 4.3 61 6 C60.15544935 7.48774273 59.2723778 8.95416536 58.35546875 10.3984375 C57.84306641 11.20796875 57.33066406 12.0175 56.80273438 12.8515625 C56.26970703 13.68429687 55.73667969 14.51703125 55.1875 15.375 C54.66607422 16.2 54.14464844 17.025 53.60742188 17.875 C50.54399451 22.69387451 47.3640817 27.38604692 44 32 C42.11401367 31.66674805 42.11401367 31.66674805 40 31 C38.17578125 28.33203125 38.17578125 28.33203125 36.3125 24.8125 C35.62473346 23.54099326 34.93319711 22.27151981 34.23828125 21.00390625 C33.87814941 20.34664551 33.51801758 19.68938477 33.14697266 19.01220703 C30.88262075 15.03971057 28.33282814 11.24559912 25.79418945 7.44458008 C23 3.20552407 23 3.20552407 23 1 C15.41 1 7.82 1 0 1 C0 0.67 0 0.34 0 0 Z " fill="#080B0A" transform="translate(768,456)"/>
<path d="M0 0 C1.1653125 -0.00128906 2.330625 -0.00257813 3.53125 -0.00390625 C4.7584375 -0.00003906 5.985625 0.00382812 7.25 0.0078125 C9.09078125 0.00201172 9.09078125 0.00201172 10.96875 -0.00390625 C12.71671875 -0.00197266 12.71671875 -0.00197266 14.5 0 C15.57765625 0.00112793 16.6553125 0.00225586 17.765625 0.00341797 C20.25 0.1328125 20.25 0.1328125 21.25 1.1328125 C21.34629597 2.87907774 21.37187539 4.62927155 21.37025452 6.37818909 C21.37162918 7.51547455 21.37300385 8.65276001 21.37442017 9.82450867 C21.37082489 11.08326309 21.36722961 12.34201752 21.36352539 13.63891602 C21.36367142 14.95579407 21.36381744 16.27267212 21.3639679 17.62945557 C21.36425587 21.25119518 21.35835924 24.87290196 21.35139394 28.49463391 C21.3451603 32.27563134 21.34455659 36.05662945 21.34336853 39.83763123 C21.34025524 47.0022554 21.33204189 54.1668644 21.32201904 61.33148187 C21.31085782 69.48612412 21.30534743 77.64076707 21.30032361 85.79541504 C21.28985928 102.57455643 21.27225989 119.35368253 21.25 136.1328125 C20.59 135.8028125 19.93 135.4728125 19.25 135.1328125 C19.58 91.5728125 19.91 48.0128125 20.25 3.1328125 C11.67 3.4628125 3.09 3.7928125 -5.75 4.1328125 C-6.08 3.1428125 -6.41 2.1528125 -6.75 1.1328125 C-4.97550406 -0.64168344 -2.39982739 0.00251178 0 0 Z " fill="#0C1010" transform="translate(974.75,418.8671875)"/>
<path d="M0 0 C0.66 0.66 1.32 1.32 2 2 C-2.08588524 3.36196175 -5.8176598 2.92218038 -10.08984375 2.7421875 C-13.38919157 3.03447872 -14.53314281 3.89185806 -17 6 C-17.66 6 -18.32 6 -19 6 C-20.43437026 14.76819878 -20.43437026 14.76819878 -18 23 C-13.07893174 25.57770242 -7.33397863 25.95256532 -2.00390625 24.4296875 C1.44510308 23.06729296 2.90995537 22.13506695 5 19 C5.59895032 13.97504021 5.66912695 9.42189477 3.5 4.8125 C3.005 4.214375 2.51 3.61625 2 3 C3.8125 3.0625 3.8125 3.0625 6 4 C8.61094255 8.41159258 9.60715397 11.92360283 8.70703125 17.0078125 C7.07387241 21.60953078 3.77325272 24.89770777 -0.3125 27.4375 C-6.83582883 28.8028479 -12.27236823 28.72962068 -18 25 C-20.73737067 22.63254428 -21.84709902 21.45870295 -23 18 C-23.43852214 11.20290681 -22.58285299 8.11723637 -18.1875 2.8125 C-12.73034138 -1.70914572 -6.64454176 -1.48187622 0 0 Z " fill="#0C0F0F" transform="translate(744,416)"/>
<path d="M0 0 C0.99 0.33 1.98 0.66 3 1 C1.625 2.5 1.625 2.5 0 4 C-0.66 4 -1.32 4 -2 4 C-2 4.66 -2 5.32 -2 6 C-2.66 6 -3.32 6 -4 6 C-4.48108275 7.41601714 -4.95978141 8.83284437 -5.4375 10.25 C-5.70433594 11.03890625 -5.97117187 11.8278125 -6.24609375 12.640625 C-6.9153949 14.7352255 -7.46667992 16.86671967 -8 19 C5.2 19 18.4 19 32 19 C32 17.35 32 15.7 32 14 C32.66 14 33.32 14 34 14 C34.04241723 16.33294775 34.04092937 18.66702567 34 21 C32.05136075 22.94863925 29.1019128 22.1291874 26.50878906 22.13894653 C25.59838867 22.1369223 24.68798828 22.13489807 23.75 22.1328125 C22.82155273 22.13376923 21.89310547 22.13472595 20.93652344 22.13571167 C18.96940035 22.13639355 17.00227504 22.13453872 15.03515625 22.13037109 C12.01296974 22.12502295 8.99093185 22.13031582 5.96875 22.13671875 C4.06249967 22.13605797 2.15624943 22.13477681 0.25 22.1328125 C-1.11560059 22.13584885 -1.11560059 22.13584885 -2.50878906 22.13894653 C-8.88505031 22.11494969 -8.88505031 22.11494969 -10 21 C-10.81210313 14.50317499 -9.42852954 11.23902513 -5.6015625 5.98828125 C-3.86442833 3.83169274 -2.07595825 1.83642461 0 0 Z " fill="#0D1313" transform="translate(898,475)"/>
<path d="M0 0 C0.99 0 1.98 0 3 0 C4.50310958 1.99492457 5.78384076 3.92885921 7.0625 6.0625 C7.8527469 7.33812023 8.6444697 8.61282705 9.4375 9.88671875 C10.05818359 10.890979 10.05818359 10.890979 10.69140625 11.91552734 C12.91006844 15.44965753 15.2371257 18.91053051 17.5625 22.375 C18.00408447 23.03508057 18.44566895 23.69516113 18.90063477 24.37524414 C19.93262436 25.91758756 20.96613401 27.45891374 22 29 C21.34 29.66 20.68 30.32 20 31 C15.1036639 24.13917647 10.44464302 17.16203615 6 10 C5.43796875 9.10925781 4.8759375 8.21851563 4.296875 7.30078125 C3 5 3 5 3 3 C2.34 3 1.68 3 1 3 C0.74114014 3.70286133 0.48228027 4.40572266 0.21557617 5.12988281 C-1.86853014 10.05070102 -4.77135119 14.48234903 -7.60229492 19.00341797 C-8.32650687 20.16900003 -9.0410536 21.34064249 -9.74584961 22.51806641 C-10.77048731 24.22873685 -11.82827045 25.91941553 -12.88671875 27.609375 C-13.50764404 28.61967773 -14.12856934 29.62998047 -14.76831055 30.67089844 C-18.24266551 34.29690723 -21.75182678 33.89947105 -26.53881836 34.11352539 C-27.29815674 34.10828857 -28.05749512 34.10305176 -28.83984375 34.09765625 C-29.67451172 34.09443359 -30.50917969 34.09121094 -31.36914062 34.08789062 C-32.64047852 34.07532227 -32.64047852 34.07532227 -33.9375 34.0625 C-34.81212891 34.05798828 -35.68675781 34.05347656 -36.58789062 34.04882812 C-38.72529047 34.03714834 -40.86265463 34.01921689 -43 34 C-43 33.34 -43 32.68 -43 32 C-30.625 31.505 -30.625 31.505 -18 31 C-17.34 29.35 -16.68 27.7 -16 26 C-14.61945253 23.71381339 -13.21741652 21.47819776 -11.75 19.25 C-11.35103516 18.63600342 -10.95207031 18.02200684 -10.54101562 17.3894043 C-7.77780355 13.14725081 -4.96434987 8.93987494 -2.09375 4.76953125 C-0.8325334 2.88060102 -0.8325334 2.88060102 0 0 Z " fill="#090D0D" transform="translate(808,521)"/>
<path d="M0 0 C0.33 0.99 0.66 1.98 1 3 C-0.36230469 5.26635742 -0.36230469 5.26635742 -2.421875 7.91796875 C-6.94594774 13.89789519 -11.11518614 20.0591836 -15.25 26.3125 C-15.94351563 27.35728516 -16.63703125 28.40207031 -17.3515625 29.47851562 C-18.6704862 31.46574454 -19.98401462 33.45656946 -21.29101562 35.45166016 C-22.30144752 36.95835845 -23.3416213 38.44690445 -24.44335938 39.88818359 C-25.75365987 41.52445542 -25.75365987 41.52445542 -27 44 C-26.19457896 47.77576814 -24.05398131 50.58430506 -21.8125 53.6875 C-21.20019531 54.54859375 -20.58789062 55.4096875 -19.95703125 56.296875 C-18.6316786 58.12750181 -17.29537295 59.95023991 -15.94921875 61.765625 C-15.30597656 62.64734375 -14.66273438 63.5290625 -14 64.4375 C-13.1028125 65.64212891 -13.1028125 65.64212891 -12.1875 66.87109375 C-11.795625 67.57363281 -11.40375 68.27617188 -11 69 C-11.33 69.99 -11.66 70.98 -12 72 C-18.42095006 63.05892757 -24.76240914 54.07012005 -31 45 C-26.61044587 38.38368385 -22.16348914 31.80809779 -17.6875 25.25 C-16.70499268 23.8100769 -16.70499268 23.8100769 -15.70263672 22.34106445 C-1.41072036 1.41072036 -1.41072036 1.41072036 0 0 Z " fill="#080B0B" transform="translate(855,460)"/>
<path d="M0 0 C0.02887236 3.81248426 0.04675492 7.6249407 0.0625 11.4375 C0.07087891 12.52611328 0.07925781 13.61472656 0.08789062 14.73632812 C0.09272461 16.28803711 0.09272461 16.28803711 0.09765625 17.87109375 C0.10551147 19.30859985 0.10551147 19.30859985 0.11352539 20.77514648 C0 23 0 23 -1 24 C-2.84159023 24.09959621 -4.68696967 24.13080411 -6.53125 24.1328125 C-7.65144531 24.13410156 -8.77164062 24.13539063 -9.92578125 24.13671875 C-11.10527344 24.13285156 -12.28476563 24.12898438 -13.5 24.125 C-15.26923828 24.13080078 -15.26923828 24.13080078 -17.07421875 24.13671875 C-18.75451172 24.13478516 -18.75451172 24.13478516 -20.46875 24.1328125 C-21.50451172 24.13168457 -22.54027344 24.13055664 -23.60742188 24.12939453 C-26 24 -26 24 -27 23 C-27.08713831 21.29227642 -27.10700007 19.58101351 -27.09765625 17.87109375 C-27.09443359 16.83662109 -27.09121094 15.80214844 -27.08789062 14.73632812 C-27.07951172 13.64771484 -27.07113281 12.55910156 -27.0625 11.4375 C-27.05798828 10.34501953 -27.05347656 9.25253906 -27.04882812 8.12695312 C-27.03699826 5.41791505 -27.02051543 2.70898401 -27 0 C-23.25044125 -0.19713345 -19.50034696 -0.3810316 -15.75 -0.5625 C-14.68652344 -0.61857422 -13.62304688 -0.67464844 -12.52734375 -0.73242188 C-10.99013672 -0.80493164 -10.99013672 -0.80493164 -9.421875 -0.87890625 C-8.47924805 -0.9260376 -7.53662109 -0.97316895 -6.56542969 -1.02172852 C-4.17740544 -1.00150258 -2.27325608 -0.69460602 0 0 Z M-25 1 C-25 7.93 -25 14.86 -25 22 C-17.41 22 -9.82 22 -2 22 C-2 15.07 -2 8.14 -2 1 C-9.59 1 -17.18 1 -25 1 Z " fill="#BF7E2E" transform="translate(268,420)"/>
<path d="M0 0 C0.33 0 0.66 0 1 0 C1.98994534 22.70555492 2.08910724 45.40242007 2.0625 68.125 C2.06164398 68.86119568 2.06078796 69.59739136 2.05990601 70.355896 C2.04840561 79.57062102 2.02817342 88.78530985 2 98 C1.34 97.67 0.68 97.34 0 97 C0 90.73 0 84.46 0 78 C-0.66 78 -1.32 78 -2 78 C-1.33333333 76.66666667 -0.66666667 75.33333333 0 74 C0.10622554 71.38497705 0.13959992 68.80300926 0.125 66.1875 C0.1237915 65.34018311 0.12258301 64.49286621 0.12133789 63.61987305 C0.0867895 57.4229551 -0.06989495 51.23264733 -0.26171875 45.0390625 C-0.28574768 44.24419937 -0.30977661 43.44933624 -0.33453369 42.63038635 C-0.45623573 38.63292528 -0.58661535 34.6360768 -0.73193359 30.6394043 C-1.07617377 20.36233828 -0.7806445 10.25257303 0 0 Z " fill="#3D3321" transform="translate(614,455)"/>
<path d="M0 0 C-3.01578548 2.01052365 -5.36308114 2.79286046 -8.8125 3.8125 C-13.9890686 5.47125536 -17.09255984 7.29821458 -21 11 C-21.66 11 -22.32 11 -23 11 C-23.268125 11.680625 -23.53625 12.36125 -23.8125 13.0625 C-25 16 -25 16 -26.625 18.9375 C-29.49610624 25.61721656 -29.11051391 34.68474733 -26.8125 41.5 C-22.63126866 49.57410189 -18.19460256 52.40392198 -10 56 C-13.45800347 57.16527907 -13.86671887 57.06300562 -17.4375 55.375 C-24.18602191 51.13554393 -28.20996117 45.6626065 -30.59765625 38.109375 C-31.98932033 30.81327206 -31.76946598 21.95953886 -29 15 C-26.75 12.25 -26.75 12.25 -24 10 C-23.0925 9.154375 -22.185 8.30875 -21.25 7.4375 C-15.23121422 2.48177249 -7.70681642 -0.17126259 0 0 Z " fill="#BD7B29" transform="translate(165,497)"/>
<path d="M0 0 C2.03860676 3.38035122 2.25282439 5.98138275 2.25878906 9.8984375 C2.26509338 11.08646973 2.27139771 12.27450195 2.27789307 13.49853516 C2.2738446 14.77776855 2.26979614 16.05700195 2.265625 17.375 C2.26753845 18.69161621 2.2694519 20.00823242 2.27142334 21.36474609 C2.27436847 24.14881086 2.27009674 26.93274708 2.26074219 29.71679688 C2.24934788 33.28118116 2.25591064 36.84526422 2.26788712 40.40963745 C2.27686146 43.8147823 2.27057375 47.21984659 2.265625 50.625 C2.26967346 51.9042334 2.27372192 53.1834668 2.27789307 54.50146484 C2.27158875 55.68949707 2.26528442 56.8775293 2.25878906 58.1015625 C2.25719788 59.14650879 2.25560669 60.19145508 2.25396729 61.26806641 C1.99894018 64.01140057 1.41076096 65.66072219 0 68 C-0.33 68 -0.66 68 -1 68 C-1.02312611 59.28155997 -1.04091646 50.56313044 -1.05181217 41.84466648 C-1.05704041 37.79674258 -1.06413699 33.74883959 -1.07543945 29.70092773 C-1.08627043 25.79764029 -1.09227728 21.89437301 -1.09487724 17.9910717 C-1.09673111 16.49866353 -1.100351 15.00625652 -1.10573006 13.51385689 C-1.11294331 11.43051861 -1.11399083 9.34726469 -1.11352539 7.26391602 C-1.115746 6.07588882 -1.11796661 4.88786163 -1.12025452 3.66383362 C-1 1 -1 1 0 0 Z " fill="#050808" transform="translate(749,484)"/>
<path d="M0 0 C1.09731445 0.00676758 1.09731445 0.00676758 2.21679688 0.01367188 C3.99873419 0.02531852 5.78062863 0.04324809 7.5625 0.0625 C7.5625 0.7225 7.5625 1.3825 7.5625 2.0625 C8.861875 2.289375 10.16125 2.51625 11.5 2.75 C21.09115896 4.91477569 30.08436919 10.84530378 35.5625 19.0625 C35.0675 20.5475 35.0675 20.5475 34.5625 22.0625 C34.16160156 21.55460937 33.76070313 21.04671875 33.34765625 20.5234375 C25.36068997 10.852145 15.08751859 4.75607607 2.5625 3.0625 C-10.3090567 1.99649963 -22.41878364 4.14377112 -33.4375 11.0625 C-34.0975 10.7325 -34.7575 10.4025 -35.4375 10.0625 C-24.78300862 1.93351769 -13.20073482 -0.15700782 0 0 Z " fill="#BD7C2B" transform="translate(400.4375,452.9375)"/>
<path d="M0 0 C0.02887236 3.81248426 0.04675492 7.6249407 0.0625 11.4375 C0.07087891 12.52611328 0.07925781 13.61472656 0.08789062 14.73632812 C0.09272461 16.28803711 0.09272461 16.28803711 0.09765625 17.87109375 C0.10551147 19.30859985 0.10551147 19.30859985 0.11352539 20.77514648 C0 23 0 23 -1 24 C-2.92667507 24.08748207 -4.85651861 24.10697334 -6.78515625 24.09765625 C-7.95498047 24.09443359 -9.12480469 24.09121094 -10.33007812 24.08789062 C-11.56177734 24.07951172 -12.79347656 24.07113281 -14.0625 24.0625 C-15.91584961 24.05573242 -15.91584961 24.05573242 -17.80664062 24.04882812 C-20.87114117 24.03699608 -23.93554721 24.02051173 -27 24 C-28.19799449 19.85340627 -27.8896192 16.00630953 -27.5625 11.75 C-27.51029297 11.00492187 -27.45808594 10.25984375 -27.40429688 9.4921875 C-27.2751783 7.66105139 -27.13834886 5.83046187 -27 4 C-26.67 4 -26.34 4 -26 4 C-26 9.94 -26 15.88 -26 22 C-18.08 22 -10.16 22 -2 22 C-2 15.07 -2 8.14 -2 1 C-10.25 1 -18.5 1 -27 1 C-27 0.67 -27 0.34 -27 0 C-23.43798805 -0.19766544 -19.87538633 -0.38133629 -16.3125 -0.5625 C-15.30509766 -0.61857422 -14.29769531 -0.67464844 -13.25976562 -0.73242188 C-11.79506836 -0.80493164 -11.79506836 -0.80493164 -10.30078125 -0.87890625 C-9.40528564 -0.9260376 -8.50979004 -0.97316895 -7.5871582 -1.02172852 C-4.93176823 -0.99942695 -2.58041401 -0.60392668 0 0 Z " fill="#B4762B" transform="translate(597,420)"/>
<path d="M0 0 C1.06669922 0.00322266 2.13339844 0.00644531 3.23242188 0.00976562 C4.88661133 0.02233398 4.88661133 0.02233398 6.57421875 0.03515625 C7.69634766 0.03966797 8.81847656 0.04417969 9.97460938 0.04882812 C12.73703385 0.06058312 15.49934873 0.07701548 18.26171875 0.09765625 C18.305861 2.00369576 18.33723322 3.9100336 18.36328125 5.81640625 C18.38213379 6.87794922 18.40098633 7.93949219 18.42041016 9.03320312 C18.19261548 13.43209364 16.95623667 16.63565954 14.26171875 20.09765625 C10.10675659 23.69862346 6.70094618 24.66251806 1.26171875 25.09765625 C3.6915116 22.6678634 6.17854799 21.67671165 9.2890625 20.29296875 C11.73632654 18.81007213 12.82795391 17.58341423 14.26171875 15.09765625 C15.05111033 11.83495712 15.05111033 11.83495712 15.44921875 8.34765625 C15.60777344 7.1771875 15.76632813 6.00671875 15.9296875 4.80078125 C16.03925781 3.90875 16.14882812 3.01671875 16.26171875 2.09765625 C12.49007807 2.17981619 8.71990678 2.29253031 4.94921875 2.41015625 C3.89669922 2.43271484 2.84417969 2.45527344 1.75976562 2.47851562 C-5.45588108 2.72273751 -11.86742993 3.88210835 -18.73828125 6.09765625 C-18.73828125 5.43765625 -18.73828125 4.77765625 -18.73828125 4.09765625 C-17.52140625 3.62328125 -16.30453125 3.14890625 -15.05078125 2.66015625 C-14.36628906 2.39332031 -13.68179688 2.12648438 -12.9765625 1.8515625 C-8.62721518 0.38659909 -4.57712239 -0.02447659 0 0 Z " fill="#BE7C2B" transform="translate(181.73828125,510.90234375)"/>
<path d="M0 0 C2.31184322 0.06339202 4.62344651 0.10453338 6.93579102 0.14501953 C14.57941561 0.32568646 21.34864796 0.78609971 28.48461914 3.81298828 C28.48461914 4.14298828 28.48461914 4.47298828 28.48461914 4.81298828 C27.21263672 4.65378906 25.9406543 4.49458984 24.63012695 4.33056641 C19.46885239 3.75902178 14.34549822 3.60998139 9.15649414 3.53173828 C8.20446106 3.51332886 7.25242798 3.49491943 6.27154541 3.47595215 C2.23655412 3.3979565 -1.79858163 3.32945033 -5.83374023 3.26074219 C-8.79540933 3.20890822 -11.75694218 3.15173704 -14.71850586 3.09423828 C-16.08111542 3.07387512 -16.08111542 3.07387512 -17.47125244 3.05310059 C-21.60095801 2.97202062 -25.48797616 2.84223708 -29.51538086 1.81298828 C-29.51538086 1.48298828 -29.51538086 1.15298828 -29.51538086 0.81298828 C-19.62738361 -0.11051241 -9.91614724 -0.28631801 0 0 Z " fill="#050706" transform="translate(656.515380859375,419.18701171875)"/>
<path d="M0 0 C0.66 0 1.32 0 2 0 C0.54173845 4.22661904 -1.67147724 7.56743894 -4.3125 11.125 C-7.40539645 15.35857193 -10.44066887 19.61932661 -13.375 23.96484375 C-13.94565186 24.80966309 -14.51630371 25.65448242 -15.10424805 26.52490234 C-16.22189812 28.18516458 -17.33551219 29.84815271 -18.44458008 31.51416016 C-21.32933203 35.78829738 -24.19907093 39.50820379 -28 43 C-27.36553313 39.53369269 -26.00461302 37.24319003 -24.0078125 34.359375 C-23.38986816 33.46049561 -22.77192383 32.56161621 -22.13525391 31.63549805 C-21.47187012 30.68328369 -20.80848633 29.73106934 -20.125 28.75 C-19.11638916 27.28784058 -19.11638916 27.28784058 -18.08740234 25.79614258 C-16.71815863 23.81186099 -15.34657989 21.82918861 -13.97265625 19.84814453 C-12.17106517 17.24698592 -10.3795079 14.63938759 -8.59375 12.02734375 C-7.60419626 10.58070892 -6.61461488 9.134093 -5.625 7.6875 C-5.16754395 7.01879883 -4.71008789 6.35009766 -4.23876953 5.66113281 C-1.11488756 1.11488756 -1.11488756 1.11488756 0 0 Z " fill="#090C0C" transform="translate(791,509)"/>
<path d="M0 0 C2.98668677 2.72315558 5.36207092 5.40154426 7.55859375 8.796875 C9.82696892 12.25229649 12.14462522 15.66503259 14.5123291 19.05262756 C16.22468194 21.50356992 17.92492159 23.96282133 19.62524414 26.42211914 C20.50835511 27.69429183 21.3958137 28.96345631 22.28735352 30.22973633 C23.58759483 32.07879464 24.8713122 33.93838187 26.15234375 35.80078125 C26.55428452 36.36436844 26.95622528 36.92795563 27.37034607 37.50862122 C30.05836818 41.46304572 30.05836818 41.46304572 29.74047852 44.38745117 C29.37394165 45.18566284 29.37394165 45.18566284 29 46 C29 45.01 29 44.02 29 43 C28.34 43 27.68 43 27 43 C25.47875977 41.05078125 25.47875977 41.05078125 23.69140625 38.3125 C23.03140625 37.31049561 22.37140625 36.30849121 21.69140625 35.27612305 C20.98886719 34.19500244 20.28632812 33.11388184 19.5625 32 C18.11704775 29.79741386 16.67042836 27.59559323 15.22265625 25.39453125 C14.15168701 23.76378662 14.15168701 23.76378662 13.05908203 22.10009766 C9.83497357 17.24596803 6.49721736 12.47071903 3.09985352 7.73632812 C0 3.32604091 0 3.32604091 0 0 Z " fill="#080C0B" transform="translate(765,461)"/>
<path d="M0 0 C2.69461986 4.04192978 2.23200889 6.2051496 2 11 C1 12 1 12 -2.14282227 12.11352539 C-3.53402697 12.11336633 -4.92523761 12.10767506 -6.31640625 12.09765625 C-7.04746078 12.0962413 -7.77851532 12.09482635 -8.53172302 12.09336853 C-10.87535632 12.08775408 -13.21889539 12.07519922 -15.5625 12.0625 C-17.14778508 12.05748686 -18.73307166 12.05292363 -20.31835938 12.04882812 C-24.2122761 12.03777997 -28.10612205 12.02050572 -32 12 C-25.63494229 7.75662819 -16.85618628 8.86674217 -9.4375 8.9375 C-8.06754883 8.94426758 -8.06754883 8.94426758 -6.66992188 8.95117188 C-4.44658548 8.96281238 -2.22328346 8.98074153 0 9 C0 6.03 0 3.06 0 0 Z " fill="#BC7B2C" transform="translate(198,485)"/>
<path d="M0 0 C3.72962237 5.59443355 2.62642409 13.41274332 1.5 19.86328125 C-0.43303113 26.92543476 -3.41007881 32.83292309 -9.0625 37.5625 C-12.27558967 39.13486303 -12.79377554 39.04116106 -16 38 C-15.48050781 37.731875 -14.96101563 37.46375 -14.42578125 37.1875 C-7.85828826 33.4970788 -4.76208915 29.24789349 -1.90625 22.36328125 C-0.7147517 17.94138454 -0.53984747 13.68577992 -0.375 9.125 C-0.33632813 8.24585938 -0.29765625 7.36671875 -0.2578125 6.4609375 C-0.16418966 4.30761207 -0.08103541 2.15383586 0 0 Z " fill="#BF7D2C" transform="translate(419,495)"/>
<path d="M0 0 C0.66 0 1.32 0 2 0 C3.4375 1.8984375 3.4375 1.8984375 5 4.375 C6.57112484 6.84952162 7.92383041 8.92383041 10 11 C11.06721303 12.48193312 12.10632578 13.98429149 13.125 15.5 C13.66382813 16.2940625 14.20265625 17.088125 14.7578125 17.90625 C16 20 16 20 16 22 C1.21867882 22.18451025 1.21867882 22.18451025 -5 21 C-5 20.67 -5 20.34 -5 20 C-0.05 19.67 4.9 19.34 10 19 C8.26614506 14.66536265 6.50248034 11.60304064 3.875 7.8125 C0 2.22064057 0 2.22064057 0 0 Z " fill="#0A0D0D" transform="translate(845,533)"/>
<path d="M0 0 C12.87 0.495 12.87 0.495 26 1 C26 7.6 26 14.2 26 21 C25.67 21 25.34 21 25 21 C25 15.39 25 9.78 25 4 C24.34 4 23.68 4 23 4 C23 3.34 23 2.68 23 2 C16.4 2 9.8 2 3 2 C3.33 8.27 3.66 14.54 4 21 C3.34 21 2.68 21 2 21 C1.92652344 19.30230469 1.92652344 19.30230469 1.8515625 17.5703125 C1.77653486 16.08851661 1.70098703 14.606747 1.625 13.125 C1.57859375 12.00544922 1.57859375 12.00544922 1.53125 10.86328125 C1.44356169 6.46526812 1.44356169 6.46526812 -1 3 C-0.67 2.01 -0.34 1.02 0 0 Z " fill="#D29543" transform="translate(569,420)"/>
<path d="M0 0 C3.44148018 4.58864023 3.39681791 7.26676503 3.29296875 12.703125 C3.28872391 13.54091492 3.28447906 14.37870483 3.28010559 15.24188232 C3.26334408 17.91158502 3.22569711 20.58052637 3.1875 23.25 C3.17244987 25.06248908 3.15876203 26.87499002 3.14648438 28.6875 C3.11344889 33.12529231 3.06168443 37.56251717 3 42 C2.67 42 2.34 42 2 42 C2 38.04 2 34.08 2 30 C1.34 30 0.68 30 0 30 C0 20.1 0 10.2 0 0 Z " fill="#2F2D21" transform="translate(614,424)"/>
<path d="M0 0 C0.33 0 0.66 0 1 0 C0.80140999 11.51822046 -4.66867461 21.28486611 -12.6875 29.25 C-18.47371217 34.78250273 -18.47371217 34.78250273 -22 36 C-22.99 35.67 -23.98 35.34 -25 35 C-24.35933594 34.5875 -23.71867188 34.175 -23.05859375 33.75 C-10.12691748 25.11603432 -3.90975344 14.93970827 0 0 Z " fill="#BB7929" transform="translate(555,517)"/>
<path d="M0 0 C0.33 0.99 0.66 1.98 1 3 C-3.94884066 11.01879944 -11.94326051 15.78276151 -20.74609375 18.5078125 C-24.2390293 19.27056792 -27.43701823 19.19434446 -31 19 C-28.15839225 17.10559483 -27.18137197 16.74124126 -24 16.25 C-13.55579772 14.0253 -6.43268058 8.29428728 0 0 Z " fill="#0A0D0C" transform="translate(705,489)"/>
<path d="M0 0 C1.94020422 1.86259605 3.78872521 3.73660703 5.47265625 5.8359375 C11.81441339 13.66193568 19.54084004 17.84694668 29 21 C29 21.33 29 21.66 29 22 C21.85120011 22.94063156 16.01090679 19.28753761 10.49609375 15.09765625 C6.26124813 11.46280523 2.64218239 7.93973229 0 3 C0 2.01 0 1.02 0 0 Z " fill="#090D0C" transform="translate(869,532)"/>
<path d="M0 0 C1.81403189 2.72104784 2.69396378 4.82731654 3.75 7.875 C6.24550726 14.20124903 9.21774046 16.47248496 15.1875 19.75 C19.90416785 21.63029327 24.97980927 21.73673502 30 22 C29.67 22.66 29.34 23.32 29 24 C20.28213414 24.83468928 14.15145727 22.85003649 7.14453125 17.61328125 C2.46206698 13.39328258 0.20399957 8.26399318 -0.1875 2 C-0.125625 1.34 -0.06375 0.68 0 0 Z " fill="#BC7A29" transform="translate(372,512)"/>
<path d="M0 0 C2.94763187 2.8583097 5.6394295 5.76708688 8.25 8.9375 C15.13663178 16.8015892 23.08855455 20.148992 33 23 C33 23.33 33 23.66 33 24 C22.52198862 23.65645864 14.35231045 18.91628064 6.7265625 11.87109375 C3.793284 8.69226931 0 4.50817433 0 0 Z " fill="#BC7929" transform="translate(352,531)"/>
<path d="M0 0 C0.33 0 0.66 0 1 0 C1 2.31 1 4.62 1 7 C4.29073662 7.22531972 7.58249419 7.42735982 10.875 7.625 C11.81214844 7.68945312 12.74929687 7.75390625 13.71484375 7.8203125 C15.05869141 7.89765625 15.05869141 7.89765625 16.4296875 7.9765625 C17.25710449 8.02893066 18.08452148 8.08129883 18.93701172 8.13525391 C21.22674717 8.21280739 21.22674717 8.21280739 23 6 C23 7.32 23 8.64 23 10 C14.75 10 6.5 10 -2 10 C-1 1 -1 1 0 0 Z " fill="#C1802E" transform="translate(140,478)"/>
<path d="M0 0 C4.08629698 2.1115793 4.08629698 2.1115793 5.08203125 4.921875 C5.15808594 5.52515625 5.23414063 6.1284375 5.3125 6.75 C4.735 6.255 4.1575 5.76 3.5625 5.25 C1.20849371 3.38019987 1.20849371 3.38019987 -2.6875 3.75 C-2.6875 2.76 -2.6875 1.77 -2.6875 0.75 C-15.28833386 -0.00479967 -15.28833386 -0.00479967 -26.6875 4.75 C-25.6875 1.75 -25.6875 1.75 -22.375 -0.4375 C-14.97368539 -3.85349136 -7.31300946 -3.37925902 0 0 Z " fill="#BE7C2B" transform="translate(191.6875,475.25)"/>
<path d="M0 0 C-2.70768163 1.43311978 -5.31414832 2.45180967 -8.25 3.3125 C-18.68544447 6.76817178 -24.59128324 13.35881734 -31 22 C-30.66099597 16.57593558 -27.59589935 12.82861935 -24 9 C-16.58365498 2.99693307 -9.61431193 -0.50601642 0 0 Z " fill="#BE7A29" transform="translate(172,455)"/>
<path d="M0 0 C7.63354981 0.33189347 13.81537149 3.72170595 19.125 9.1875 C24.3305475 15.60767525 26.33442205 20.63944879 26 29 C25.67 29 25.34 29 25 29 C24.75765625 28.11957031 24.5153125 27.23914063 24.265625 26.33203125 C23.93046875 25.17058594 23.5953125 24.00914062 23.25 22.8125 C22.92515625 21.66394531 22.6003125 20.51539063 22.265625 19.33203125 C20.96550492 15.90918424 19.34405806 13.77248884 17 11 C17 10.34 17 9.68 17 9 C16.13181641 8.566875 16.13181641 8.566875 15.24609375 8.125 C13.84032341 7.42089242 12.43636587 6.71314048 11.03515625 6 C7.40949934 4.16204323 3.81167859 2.42937947 0 1 C0 0.67 0 0.34 0 0 Z " fill="#BA7726" transform="translate(197,456)"/>
<path d="M0 0 C-2.84099734 2.2636122 -5.65398618 3.89440029 -8.9375 5.4375 C-15.88779495 8.87188328 -19.71225867 12.62964146 -24 19 C-24.734375 17.2734375 -24.734375 17.2734375 -25 15 C-19.73089122 7.37365834 -9.64935364 -0.67684315 0 0 Z " fill="#070B0B" transform="translate(897,456)"/>
<path d="M0 0 C-0.33 0.99 -0.66 1.98 -1 3 C-1.52464844 2.855625 -2.04929687 2.71125 -2.58984375 2.5625 C-11.03470247 0.53910623 -19.37874147 0.81997372 -28 1 C-27.67 0.34 -27.34 -0.32 -27 -1 C-18.23655627 -2.89015453 -8.6976467 -1.93281038 0 0 Z " fill="#0C1111" transform="translate(926,455)"/>
<path d="M0 0 C0.77214844 0.2784375 1.54429687 0.556875 2.33984375 0.84375 C2.90832031 1.0603125 3.47679687 1.276875 4.0625 1.5 C4.0625 1.83 4.0625 2.16 4.0625 2.5 C2.88816406 2.34660156 1.71382812 2.19320313 0.50390625 2.03515625 C-6.31084588 1.27796157 -13.15072356 1.14341713 -20 0.9375 C-21.35613016 0.89420372 -22.71225011 0.85058634 -24.06835938 0.80664062 C-27.35798671 0.7012789 -30.64768059 0.59915048 -33.9375 0.5 C-33.9375 0.17 -33.9375 -0.16 -33.9375 -0.5 C-30.4167903 -0.66934717 -26.89591552 -0.83499193 -23.375 -1 C-22.38435547 -1.04769531 -21.39371094 -1.09539062 -20.37304688 -1.14453125 C-5.03223833 -1.85805723 -5.03223833 -1.85805723 0 0 Z " fill="#0A0F0E" transform="translate(680.9375,421.5)"/>
<path d="M0 0 C0 0.33 0 0.66 0 1 C-1.98 1 -3.96 1 -6 1 C-6 1.66 -6 2.32 -6 3 C-7.299375 3.20625 -8.59875 3.4125 -9.9375 3.625 C-16.73802927 5.11832317 -22.24484028 8.99063363 -27 14 C-25.86145187 9.16117046 -23.10472899 7.08425198 -19.20703125 4.359375 C-12.87154505 0.45716403 -7.38583365 -0.4616146 0 0 Z " fill="#C07E2C" transform="translate(512,454)"/>
<path d="M0 0 C10.56 0 21.12 0 32 0 C32 0.33 32 0.66 32 1 C22.76 1.33 13.52 1.66 4 2 C4.66 3.32 5.32 4.64 6 6 C5.34 6.66 4.68 7.32 4 8 C2.68 5.36 1.36 2.72 0 0 Z " fill="#0D1312" transform="translate(760,455)"/>
<path d="M0 0 C0.33 0 0.66 0 1 0 C1.33 4.29 1.66 8.58 2 13 C2.70125 11.9275 3.4025 10.855 4.125 9.75 C6.70522849 6.14354427 9.06513375 4.0529737 13 2 C13.99 2.33 14.98 2.66 16 3 C15.48050781 3.35191406 14.96101563 3.70382812 14.42578125 4.06640625 C10.71555544 6.6930541 7.71875095 9.06259443 5.1875 12.875 C4.465625 13.90625 3.74375 14.9375 3 16 C2.01 16 1.02 16 0 16 C0 10.72 0 5.44 0 0 Z " fill="#BB7725" transform="translate(310,456)"/>
<path d="M0 0 C8.17863152 -0.62273844 14.46773927 -0.34457696 21 5 C22.68374364 6.94839711 23.77575188 8.71118829 25 11 C24.67 11.66 24.34 12.32 24 13 C23.67128906 12.54109375 23.34257813 12.0821875 23.00390625 11.609375 C18.5107522 5.81332804 13.67745329 2.83627195 6.421875 1.5390625 C4.28811629 1.29079498 2.14383657 1.13611661 0 1 C0 0.67 0 0.34 0 0 Z " fill="#060A09" transform="translate(905,473)"/>
<path d="M0 0 C0.33 0 0.66 0 1 0 C1 8.58 1 17.16 1 26 C-2 23 -2 23 -2.07421875 20.109375 C-1.94660156 19.00078125 -1.81898438 17.8921875 -1.6875 16.75 C-1.11159252 11.32286803 -1.11159252 11.32286803 -1 5.875 C-1 3 -1 3 0 0 Z " fill="#BC7B2D" transform="translate(458,424)"/>
<path d="M0 0 C0.66 0 1.32 0 2 0 C1.81824219 0.53367187 1.63648438 1.06734375 1.44921875 1.6171875 C-0.4936055 7.37591783 -2.28384432 13.16993922 -4 19 C-4.33 19 -4.66 19 -5 19 C-5.50724362 12.15221113 -3.99098933 7.16215874 -1 1 C-0.67 0.67 -0.34 0.34 0 0 Z " fill="#080D0C" transform="translate(869,476)"/>
<path d="M0 0 C0.33 0 0.66 0 1 0 C3.92350419 9.15281696 2.39965871 17.71918607 1 27 C0.67 27 0.34 27 0 27 C0 18.09 0 9.18 0 0 Z " fill="#060B0B" transform="translate(748,457)"/>
<path d="M0 0 C9.9 0 19.8 0 30 0 C29.34 1.32 28.68 2.64 28 4 C27.34 4 26.68 4 26 4 C26 3.01 26 2.02 26 1 C17.42 1 8.84 1 0 1 C0 0.67 0 0.34 0 0 Z " fill="#0C1211" transform="translate(830,455)"/>
<path d="M0 0 C0.99 0.33 1.98 0.66 3 1 C1.625 2.5 1.625 2.5 0 4 C-0.66 4 -1.32 4 -2 4 C-2 4.66 -2 5.32 -2 6 C-2.66 6 -3.32 6 -4 6 C-4.18175781 6.63808594 -4.36351562 7.27617187 -4.55078125 7.93359375 C-4.80214844 8.75988281 -5.05351563 9.58617187 -5.3125 10.4375 C-5.55613281 11.26121094 -5.79976562 12.08492188 -6.05078125 12.93359375 C-6.36402344 13.61550781 -6.67726563 14.29742187 -7 15 C-7.99 15.33 -8.98 15.66 -10 16 C-8.7158519 9.67804014 -4.77216051 4.24192045 0 0 Z " fill="#090D0D" transform="translate(898,475)"/>
<path d="M0 0 C6.40308847 0.26679535 10.4195349 2.51607866 15 7 C16.5 9.875 16.5 9.875 17 12 C16.34 12 15.68 12 15 12 C14.10243049 10.9523451 13.25625705 9.8603372 12.4375 8.75 C8.98354345 4.52468839 5.05770872 2.80953579 0 1 C0 0.67 0 0.34 0 0 Z " fill="#BC7828" transform="translate(511,475)"/>
<path d="M0 0 C5.32495137 0.32272433 8.42653746 3.34732278 12 7 C14 9.6875 14 9.6875 15 12 C14.67 12.99 14.34 13.98 14 15 C12.99421411 13.71283353 11.99553202 12.42011342 11 11.125 C10.443125 10.40570313 9.88625 9.68640625 9.3125 8.9453125 C8 7 8 7 8 5 C6.8553125 4.5978125 6.8553125 4.5978125 5.6875 4.1875 C3.12619116 3.05575888 1.80307062 2.08776599 0 0 Z " fill="#BC7927" transform="translate(403,476)"/>
<path d="M0 0 C5.5991782 1.86639273 8.06848402 8.40740817 10.9375 13.3125 C12.10858468 16.27465536 11.90310394 17.07892588 11 20 C10.54109375 19.03578125 10.0821875 18.0715625 9.609375 17.078125 C8.99001725 15.80187267 8.37020128 14.52584263 7.75 13.25 C7.44964844 12.61578125 7.14929688 11.9815625 6.83984375 11.328125 C4.991441 7.55266406 3.03647571 4.87524691 0 2 C0 1.34 0 0.68 0 0 Z " fill="#BB7929" transform="translate(542,466)"/>
<path d="M0 0 C4.58900349 1.21473622 6.90414423 3.73024996 9.9609375 7.1484375 C11 9 11 9 10.6640625 11.2265625 C10.44492187 11.81179688 10.22578125 12.39703125 10 13 C6 7.25 6 7.25 6 5 C4.35 4.67 2.7 4.34 1 4 C0.67 2.68 0.34 1.36 0 0 Z " fill="#0A0E0D" transform="translate(675,444)"/>
<path d="M0 0 C4.51617599 -0.07654536 8.59085217 -0.10228696 13 1 C13 1.66 13 2.32 13 3 C11.73542969 3.09087891 11.73542969 3.09087891 10.4453125 3.18359375 C9.34960938 3.26738281 8.25390625 3.35117187 7.125 3.4375 C6.03445313 3.51871094 4.94390625 3.59992187 3.8203125 3.68359375 C1.05271029 3.83001703 1.05271029 3.83001703 -1 5 C-0.67 3.35 -0.34 1.7 0 0 Z " fill="#070B0B" transform="translate(931,523)"/>
<path d="M0 0 C0 0.33 0 0.66 0 1 C-2.56211075 1.19569589 -5.12432391 1.38180612 -7.6875 1.5625 C-8.40873047 1.61857422 -9.12996094 1.67464844 -9.87304688 1.73242188 C-13.77314064 1.99955159 -17.21111028 2.00887596 -21 1 C-14.57274189 -2.66237906 -7.03889035 -1.0238386 0 0 Z " fill="#080A0A" transform="translate(640,553)"/>
<path d="M0 0 C0.99 0.33 1.98 0.66 3 1 C-1.105466 4.97185616 -4.02968261 7.70876501 -10 8 C-10 7.34 -10 6.68 -10 6 C-9.44570313 5.73445313 -8.89140625 5.46890625 -8.3203125 5.1953125 C-7.59585938 4.84210938 -6.87140625 4.48890625 -6.125 4.125 C-5.40570312 3.77695312 -4.68640625 3.42890625 -3.9453125 3.0703125 C-1.84864981 2.03442457 -1.84864981 2.03442457 0 0 Z " fill="#0A0E0D" transform="translate(681,479)"/>
<path d="M0 0 C3.49873271 1.39655297 4.70891831 2.71260484 6.25 6.125 C6.58515625 6.84945313 6.9203125 7.57390625 7.265625 8.3203125 C7.62914062 9.15175781 7.62914062 9.15175781 8 10 C7.01 10.495 7.01 10.495 6 11 C5.18357746 9.73168307 4.37200895 8.46024069 3.5625 7.1875 C3.11003906 6.47980469 2.65757813 5.77210938 2.19140625 5.04296875 C1 3 1 3 0 0 Z " fill="#C07E2F" transform="translate(36,464)"/>
<path d="M0 0 C0.33 0 0.66 0 1 0 C1.2954439 5.02254631 0.98514628 7.89542386 -2 12 C-2.66 11.67 -3.32 11.34 -4 11 C-2.68 7.37 -1.36 3.74 0 0 Z " fill="#060909" transform="translate(710,476)"/>
<path d="M0 0 C0.66 0 1.32 0 2 0 C4.15305957 3.85756507 5.39253254 6.55129785 5 11 C1.71779105 9.35889552 1.25429211 6.30677012 0 3 C0 2.01 0 1.02 0 0 Z " fill="#090D0C" transform="translate(705,439)"/>
<path d="M0 0 C3.7726764 0.53895377 5.68212991 1.99535358 8 5 C7.75 7.25 7.75 7.25 7 9 C5.14453125 6.70507812 5.14453125 6.70507812 3.2890625 4.41015625 C2.0333609 2.86733563 2.0333609 2.86733563 0 2 C0 1.34 0 0.68 0 0 Z " fill="#080C0B" transform="translate(696,430)"/>
<path d="M0 0 C3.95820859 0.56545837 6.6659053 1.80902348 10 4 C9.34 4.66 8.68 5.32 8 6 C6.66402348 5.19185349 5.331275 4.37836819 4 3.5625 C3.2575 3.11003906 2.515 2.65757812 1.75 2.19140625 C1.1725 1.79824219 0.595 1.40507812 0 1 C0 0.67 0 0.34 0 0 Z " fill="#090C0B" transform="translate(686,424)"/>
<path d="M0 0 C0.99 1.32 1.98 2.64 3 4 C2.1875 7.25 2.1875 7.25 1 10 C0.67 10 0.34 10 0 10 C0 6.7 0 3.4 0 0 Z " fill="#0A0E0F" transform="translate(748,542)"/>
<path d="M0 0 C0.556875 0.226875 1.11375 0.45375 1.6875 0.6875 C0.759375 1.14125 -0.16875 1.595 -1.125 2.0625 C-4.35171389 3.6296633 -4.35171389 3.6296633 -7.3125 5.6875 C-7.3125 4.6975 -7.3125 3.7075 -7.3125 2.6875 C-3.28618421 -0.44407895 -3.28618421 -0.44407895 0 0 Z " fill="#C1802F" transform="translate(324.3125,481.3125)"/>
<path d="M0 0 C0.33 0 0.66 0 1 0 C1.33 3.3 1.66 6.6 2 10 C0.35 10.33 -1.3 10.66 -3 11 C-3 10.34 -3 9.68 -3 9 C-2.01 9 -1.02 9 0 9 C0 6.03 0 3.06 0 0 Z " fill="#BE7C2D" transform="translate(483,544)"/>
<path d="M0 0 C1 4 1 4 1 4 Z " fill="#232B2A" transform="translate(721,532)"/>
<path d="" fill="#C99145" transform="translate(0,0)"/>
<path d="" fill="#CD9244" transform="translate(0,0)"/>
<path d="" fill="#6A5332" transform="translate(0,0)"/>
<path d="" fill="#6A5133" transform="translate(0,0)"/>
<path d="M0 0 C3 1 3 1 3 1 Z " fill="#CC9144" transform="translate(504,477)"/>
<path d="M0 0 C3 1 3 1 3 1 Z " fill="#CD9243" transform="translate(392,477)"/>
<path d="M0 0 C3 1 3 1 3 1 Z " fill="#202826" transform="translate(864,475)"/>
<path d="M0 0 C0.66 0 1.32 0 2 0 C1.67 0.66 1.34 1.32 1 2 C0.67 1.34 0.34 0.68 0 0 Z " fill="#CE9345" transform="translate(40,475)"/>
<path d="M0 0 C2 1 2 1 2 1 Z " fill="#C69147" transform="translate(515,558)"/>
<path d="M0 0 C2 1 2 1 2 1 Z " fill="#C59348" transform="translate(521,557)"/>
<path d="M0 0 C2 1 2 1 2 1 Z " fill="#2E3430" transform="translate(724,556)"/>
<path d="M0 0 C2 1 2 1 2 1 Z " fill="#C69248" transform="translate(458,556)"/>
<path d="" fill="#CA934A" transform="translate(0,0)"/>
<path d="" fill="#CB9246" transform="translate(0,0)"/>
<path d="" fill="#252D2C" transform="translate(0,0)"/>
<path d="M0 0 C2 1 2 1 2 1 Z " fill="#CB9449" transform="translate(352,536)"/>
<path d="" fill="#6C5737" transform="translate(0,0)"/>
<path d="" fill="#CA9347" transform="translate(0,0)"/>
<path d="" fill="#CB9244" transform="translate(0,0)"/>
<path d="" fill="#202929" transform="translate(0,0)"/>
<path d="M0 0 C2 1 2 1 2 1 Z " fill="#CE9445" transform="translate(170,515)"/>
<path d="M0 0 C2 1 2 1 2 1 Z " fill="#242928" transform="translate(653,511)"/>
<path d="M0 0 C2 1 2 1 2 1 Z " fill="#242A28" transform="translate(643,511)"/>
<path d="" fill="#695434" transform="translate(0,0)"/>
<path d="" fill="#CF9449" transform="translate(0,0)"/>
<path d="" fill="#CC9344" transform="translate(0,0)"/>
<path d="" fill="#CC9242" transform="translate(0,0)"/>
<path d="" fill="#212828" transform="translate(0,0)"/>
<path d="M0 0 C2 1 2 1 2 1 Z " fill="#1E2626" transform="translate(910,492)"/>
<path d="M0 0 C2 1 2 1 2 1 Z " fill="#1C2726" transform="translate(892,492)"/>
<path d="" fill="#CC9344" transform="translate(0,0)"/>
<path d="" fill="#CC9246" transform="translate(0,0)"/>
<path d="M0 0 C2 1 2 1 2 1 Z " fill="#C99041" transform="translate(318,487)"/>
<path d="M0 0 C2 1 2 1 2 1 Z " fill="#CF9546" transform="translate(193,486)"/>
<path d="" fill="#1F2827" transform="translate(0,0)"/>
<path d="M0 0 C2 1 2 1 2 1 Z " fill="#CE9447" transform="translate(382,482)"/>
<path d="" fill="#695433" transform="translate(0,0)"/>
<path d="" fill="#CC9144" transform="translate(0,0)"/>
<path d="M0 0 C2 1 2 1 2 1 Z " fill="#CE9446" transform="translate(186,477)"/>
<path d="M0 0 C2 1 2 1 2 1 Z " fill="#1C2725" transform="translate(906,476)"/>
<path d="M0 0 C2 1 2 1 2 1 Z " fill="#212B29" transform="translate(887,456)"/>
<path d="M0 0 C2 1 2 1 2 1 Z " fill="#C38F49" transform="translate(584,453)"/>
<path d="M0 0 C2 1 2 1 2 1 Z " fill="#C7934A" transform="translate(576,453)"/>
<path d="" fill="#6F593A" transform="translate(0,0)"/>
<path d="M0 0 C2 1 2 1 2 1 Z " fill="#2D3530" transform="translate(997,420)"/>
<path d="M0 0 C2 1 2 1 2 1 Z " fill="#BE8F4A" transform="translate(481,418)"/>
<path d="" fill="#93918D" transform="translate(0,0)"/>
<path d="" fill="#A07B48" transform="translate(0,0)"/>
<path d="" fill="#C8914B" transform="translate(0,0)"/>
<path d="" fill="#282F2C" transform="translate(0,0)"/>
<path d="" fill="#C6934B" transform="translate(0,0)"/>
<path d="" fill="#C79148" transform="translate(0,0)"/>
<path d="" fill="#C89148" transform="translate(0,0)"/>
<path d="" fill="#C7944A" transform="translate(0,0)"/>
<path d="" fill="#C58F48" transform="translate(0,0)"/>
<path d="" fill="#C6944B" transform="translate(0,0)"/>
<path d="" fill="#C99449" transform="translate(0,0)"/>
<path d="" fill="#C6914A" transform="translate(0,0)"/>
<path d="" fill="#CC914B" transform="translate(0,0)"/>
<path d="" fill="#C6924A" transform="translate(0,0)"/>
<path d="" fill="#C8924C" transform="translate(0,0)"/>
<path d="" fill="#CB9448" transform="translate(0,0)"/>
<path d="" fill="#2C3334" transform="translate(0,0)"/>
<path d="" fill="#262C2A" transform="translate(0,0)"/>
<path d="" fill="#2A3130" transform="translate(0,0)"/>
<path d="" fill="#2A3032" transform="translate(0,0)"/>
<path d="" fill="#484135" transform="translate(0,0)"/>
<path d="" fill="#C69148" transform="translate(0,0)"/>
<path d="" fill="#CB954B" transform="translate(0,0)"/>
<path d="" fill="#CB9549" transform="translate(0,0)"/>
<path d="" fill="#CC9547" transform="translate(0,0)"/>
<path d="" fill="#CA9649" transform="translate(0,0)"/>
<path d="" fill="#CC9349" transform="translate(0,0)"/>
<path d="" fill="#C99249" transform="translate(0,0)"/>
<path d="" fill="#2C3332" transform="translate(0,0)"/>
<path d="" fill="#272E2B" transform="translate(0,0)"/>
<path d="" fill="#28322C" transform="translate(0,0)"/>
<path d="" fill="#2F3331" transform="translate(0,0)"/>
<path d="" fill="#CA9147" transform="translate(0,0)"/>
<path d="" fill="#CA924A" transform="translate(0,0)"/>
<path d="" fill="#CC924B" transform="translate(0,0)"/>
<path d="" fill="#C8924C" transform="translate(0,0)"/>
<path d="" fill="#C9924D" transform="translate(0,0)"/>
<path d="" fill="#C89349" transform="translate(0,0)"/>
<path d="" fill="#CD964B" transform="translate(0,0)"/>
<path d="" fill="#C68F48" transform="translate(0,0)"/>
<path d="" fill="#806643" transform="translate(0,0)"/>
<path d="" fill="#6F5C3A" transform="translate(0,0)"/>
<path d="" fill="#C89648" transform="translate(0,0)"/>
<path d="" fill="#CC9348" transform="translate(0,0)"/>
<path d="" fill="#CB9348" transform="translate(0,0)"/>
<path d="" fill="#CC9648" transform="translate(0,0)"/>
<path d="" fill="#262C2A" transform="translate(0,0)"/>
<path d="" fill="#CB9449" transform="translate(0,0)"/>
<path d="" fill="#CB9348" transform="translate(0,0)"/>
<path d="" fill="#CD954A" transform="translate(0,0)"/>
<path d="" fill="#242B27" transform="translate(0,0)"/>
<path d="" fill="#715A38" transform="translate(0,0)"/>
<path d="" fill="#CC9248" transform="translate(0,0)"/>
<path d="" fill="#262B2A" transform="translate(0,0)"/>
<path d="" fill="#212827" transform="translate(0,0)"/>
<path d="" fill="#76603D" transform="translate(0,0)"/>
<path d="" fill="#22282A" transform="translate(0,0)"/>
<path d="" fill="#1F2627" transform="translate(0,0)"/>
<path d="" fill="#78603C" transform="translate(0,0)"/>
<path d="" fill="#7D623D" transform="translate(0,0)"/>
<path d="" fill="#C79449" transform="translate(0,0)"/>
<path d="" fill="#6F5A38" transform="translate(0,0)"/>
<path d="" fill="#CC9247" transform="translate(0,0)"/>
<path d="" fill="#CB9345" transform="translate(0,0)"/>
<path d="" fill="#202727" transform="translate(0,0)"/>
<path d="" fill="#C69148" transform="translate(0,0)"/>
<path d="" fill="#CC9146" transform="translate(0,0)"/>
<path d="" fill="#1E2425" transform="translate(0,0)"/>
<path d="" fill="#A17A42" transform="translate(0,0)"/>
<path d="" fill="#C48D45" transform="translate(0,0)"/>
<path d="" fill="#CC9145" transform="translate(0,0)"/>
<path d="" fill="#CA9346" transform="translate(0,0)"/>
<path d="" fill="#202927" transform="translate(0,0)"/>
<path d="" fill="#202827" transform="translate(0,0)"/>
<path d="" fill="#222828" transform="translate(0,0)"/>
<path d="" fill="#CC9145" transform="translate(0,0)"/>
<path d="" fill="#232929" transform="translate(0,0)"/>
<path d="" fill="#CC9245" transform="translate(0,0)"/>
<path d="" fill="#232A28" transform="translate(0,0)"/>
<path d="" fill="#CB9446" transform="translate(0,0)"/>
<path d="" fill="#CB9446" transform="translate(0,0)"/>
<path d="" fill="#222827" transform="translate(0,0)"/>
<path d="" fill="#775F3B" transform="translate(0,0)"/>
<path d="" fill="#CC9346" transform="translate(0,0)"/>
<path d="" fill="#192425" transform="translate(0,0)"/>
<path d="" fill="#CC9546" transform="translate(0,0)"/>
<path d="" fill="#CE9247" transform="translate(0,0)"/>
<path d="" fill="#1E2728" transform="translate(0,0)"/>
<path d="" fill="#212A2B" transform="translate(0,0)"/>
<path d="" fill="#6C5638" transform="translate(0,0)"/>
<path d="" fill="#CD934B" transform="translate(0,0)"/>
<path d="" fill="#D09547" transform="translate(0,0)"/>
<path d="" fill="#C99246" transform="translate(0,0)"/>
<path d="" fill="#202626" transform="translate(0,0)"/>
<path d="" fill="#6D5637" transform="translate(0,0)"/>
<path d="" fill="#CD9349" transform="translate(0,0)"/>
<path d="" fill="#232C29" transform="translate(0,0)"/>
<path d="" fill="#775E3B" transform="translate(0,0)"/>
<path d="" fill="#CF9448" transform="translate(0,0)"/>
<path d="" fill="#CA9245" transform="translate(0,0)"/>
<path d="" fill="#6B5835" transform="translate(0,0)"/>
<path d="" fill="#272B26" transform="translate(0,0)"/>
<path d="" fill="#CB9346" transform="translate(0,0)"/>
<path d="" fill="#CD9249" transform="translate(0,0)"/>
<path d="" fill="#CB9245" transform="translate(0,0)"/>
<path d="" fill="#CE9345" transform="translate(0,0)"/>
<path d="" fill="#79603A" transform="translate(0,0)"/>
<path d="" fill="#1E2828" transform="translate(0,0)"/>
<path d="" fill="#675435" transform="translate(0,0)"/>
<path d="" fill="#CC9444" transform="translate(0,0)"/>
<path d="" fill="#CE9448" transform="translate(0,0)"/>
<path d="" fill="#202726" transform="translate(0,0)"/>
<path d="" fill="#222A2A" transform="translate(0,0)"/>
<path d="" fill="#6C5333" transform="translate(0,0)"/>
<path d="" fill="#CF9647" transform="translate(0,0)"/>
<path d="" fill="#222A2A" transform="translate(0,0)"/>
<path d="" fill="#CE9244" transform="translate(0,0)"/>
<path d="" fill="#CC9444" transform="translate(0,0)"/>
<path d="" fill="#222B28" transform="translate(0,0)"/>
<path d="" fill="#CD9446" transform="translate(0,0)"/>
<path d="" fill="#CF9447" transform="translate(0,0)"/>
<path d="" fill="#1C2726" transform="translate(0,0)"/>
<path d="" fill="#CD9449" transform="translate(0,0)"/>
<path d="" fill="#CD9244" transform="translate(0,0)"/>
<path d="" fill="#1D2626" transform="translate(0,0)"/>
<path d="" fill="#222927" transform="translate(0,0)"/>
<path d="" fill="#CC9345" transform="translate(0,0)"/>
<path d="" fill="#CE954A" transform="translate(0,0)"/>
<path d="" fill="#262D2C" transform="translate(0,0)"/>
<path d="" fill="#252927" transform="translate(0,0)"/>
<path d="" fill="#262C27" transform="translate(0,0)"/>
<path d="" fill="#CC9448" transform="translate(0,0)"/>
<path d="" fill="#CE9244" transform="translate(0,0)"/>
<path d="" fill="#212727" transform="translate(0,0)"/>
<path d="" fill="#242B2A" transform="translate(0,0)"/>
<path d="" fill="#232928" transform="translate(0,0)"/>
<path d="" fill="#212A29" transform="translate(0,0)"/>
<path d="" fill="#1D2626" transform="translate(0,0)"/>
<path d="" fill="#CF9648" transform="translate(0,0)"/>
<path d="" fill="#242C2A" transform="translate(0,0)"/>
<path d="" fill="#D09746" transform="translate(0,0)"/>
<path d="" fill="#6A5634" transform="translate(0,0)"/>
<path d="" fill="#CC9548" transform="translate(0,0)"/>
<path d="" fill="#CE9345" transform="translate(0,0)"/>
<path d="" fill="#CC9245" transform="translate(0,0)"/>
<path d="" fill="#1C2826" transform="translate(0,0)"/>
<path d="" fill="#1F2727" transform="translate(0,0)"/>
<path d="" fill="#A27A40" transform="translate(0,0)"/>
<path d="" fill="#CB9144" transform="translate(0,0)"/>
<path d="" fill="#CD9546" transform="translate(0,0)"/>
<path d="" fill="#6E5536" transform="translate(0,0)"/>
<path d="" fill="#202727" transform="translate(0,0)"/>
<path d="" fill="#202628" transform="translate(0,0)"/>
<path d="" fill="#1E2627" transform="translate(0,0)"/>
<path d="" fill="#725B38" transform="translate(0,0)"/>
<path d="" fill="#CD9042" transform="translate(0,0)"/>
<path d="" fill="#1D2827" transform="translate(0,0)"/>
<path d="" fill="#1D2827" transform="translate(0,0)"/>
<path d="" fill="#6C5634" transform="translate(0,0)"/>
<path d="" fill="#CE9246" transform="translate(0,0)"/>
<path d="" fill="#CE9548" transform="translate(0,0)"/>
<path d="" fill="#1B2724" transform="translate(0,0)"/>
<path d="" fill="#CC9645" transform="translate(0,0)"/>
<path d="" fill="#775A36" transform="translate(0,0)"/>
<path d="" fill="#CC9447" transform="translate(0,0)"/>
<path d="" fill="#D19547" transform="translate(0,0)"/>
<path d="" fill="#CE9643" transform="translate(0,0)"/>
<path d="" fill="#1F2727" transform="translate(0,0)"/>
<path d="" fill="#A2793F" transform="translate(0,0)"/>
<path d="" fill="#C88F45" transform="translate(0,0)"/>
<path d="" fill="#CC9146" transform="translate(0,0)"/>
<path d="" fill="#CF9347" transform="translate(0,0)"/>
<path d="" fill="#1F2725" transform="translate(0,0)"/>
<path d="" fill="#202727" transform="translate(0,0)"/>
<path d="" fill="#775C34" transform="translate(0,0)"/>
<path d="" fill="#1E2927" transform="translate(0,0)"/>
<path d="" fill="#1F2726" transform="translate(0,0)"/>
<path d="" fill="#202827" transform="translate(0,0)"/>
<path d="" fill="#D19346" transform="translate(0,0)"/>
<path d="" fill="#CE9444" transform="translate(0,0)"/>
<path d="" fill="#795F39" transform="translate(0,0)"/>
<path d="" fill="#CD9446" transform="translate(0,0)"/>
<path d="" fill="#CD9444" transform="translate(0,0)"/>
<path d="" fill="#1C2827" transform="translate(0,0)"/>
<path d="" fill="#795E38" transform="translate(0,0)"/>
<path d="" fill="#CC9242" transform="translate(0,0)"/>
<path d="" fill="#C89247" transform="translate(0,0)"/>
<path d="" fill="#A47840" transform="translate(0,0)"/>
<path d="" fill="#CB9246" transform="translate(0,0)"/>
<path d="" fill="#CF9643" transform="translate(0,0)"/>
<path d="" fill="#1C2525" transform="translate(0,0)"/>
<path d="" fill="#CE9744" transform="translate(0,0)"/>
<path d="" fill="#CA9044" transform="translate(0,0)"/>
<path d="" fill="#222828" transform="translate(0,0)"/>
<path d="" fill="#222924" transform="translate(0,0)"/>
<path d="" fill="#6A5432" transform="translate(0,0)"/>
<path d="" fill="#CD9344" transform="translate(0,0)"/>
<path d="" fill="#1F2826" transform="translate(0,0)"/>
<path d="" fill="#222A26" transform="translate(0,0)"/>
<path d="" fill="#CC9147" transform="translate(0,0)"/>
<path d="" fill="#CD9448" transform="translate(0,0)"/>
<path d="" fill="#1B2523" transform="translate(0,0)"/>
<path d="" fill="#1D2625" transform="translate(0,0)"/>
<path d="" fill="#212A26" transform="translate(0,0)"/>
<path d="" fill="#CF9246" transform="translate(0,0)"/>
<path d="" fill="#1F2A25" transform="translate(0,0)"/>
<path d="" fill="#CD9349" transform="translate(0,0)"/>
<path d="" fill="#CE9444" transform="translate(0,0)"/>
<path d="" fill="#CD9644" transform="translate(0,0)"/>
<path d="" fill="#202525" transform="translate(0,0)"/>
<path d="" fill="#CD9548" transform="translate(0,0)"/>
<path d="" fill="#1F2728" transform="translate(0,0)"/>
<path d="" fill="#212826" transform="translate(0,0)"/>
<path d="" fill="#1C2424" transform="translate(0,0)"/>
<path d="" fill="#CB9344" transform="translate(0,0)"/>
<path d="" fill="#CC9046" transform="translate(0,0)"/>
<path d="" fill="#CD9446" transform="translate(0,0)"/>
<path d="" fill="#202728" transform="translate(0,0)"/>
<path d="" fill="#212724" transform="translate(0,0)"/>
<path d="" fill="#CA8F42" transform="translate(0,0)"/>
<path d="" fill="#CC9444" transform="translate(0,0)"/>
<path d="" fill="#D09246" transform="translate(0,0)"/>
<path d="" fill="#CD9345" transform="translate(0,0)"/>
<path d="" fill="#1D2825" transform="translate(0,0)"/>
<path d="" fill="#1F2626" transform="translate(0,0)"/>
<path d="" fill="#CE9349" transform="translate(0,0)"/>
<path d="" fill="#1C2521" transform="translate(0,0)"/>
<path d="" fill="#212A28" transform="translate(0,0)"/>
<path d="" fill="#6A5332" transform="translate(0,0)"/>
<path d="" fill="#7B5C37" transform="translate(0,0)"/>
<path d="" fill="#CE9143" transform="translate(0,0)"/>
<path d="" fill="#1F292B" transform="translate(0,0)"/>
<path d="" fill="#CB9344" transform="translate(0,0)"/>
<path d="" fill="#1D2424" transform="translate(0,0)"/>
<path d="" fill="#212724" transform="translate(0,0)"/>
<path d="" fill="#6D5530" transform="translate(0,0)"/>
<path d="" fill="#CD9347" transform="translate(0,0)"/>
<path d="" fill="#222A2B" transform="translate(0,0)"/>
<path d="" fill="#1E2826" transform="translate(0,0)"/>
<path d="" fill="#202728" transform="translate(0,0)"/>
<path d="" fill="#CB9547" transform="translate(0,0)"/>
<path d="" fill="#6A5434" transform="translate(0,0)"/>
<path d="" fill="#C99549" transform="translate(0,0)"/>
<path d="" fill="#6D5533" transform="translate(0,0)"/>
<path d="" fill="#CE9445" transform="translate(0,0)"/>
<path d="" fill="#202828" transform="translate(0,0)"/>
<path d="" fill="#212625" transform="translate(0,0)"/>
<path d="" fill="#202626" transform="translate(0,0)"/>
<path d="" fill="#1E2526" transform="translate(0,0)"/>
<path d="" fill="#212628" transform="translate(0,0)"/>
<path d="" fill="#202523" transform="translate(0,0)"/>
<path d="" fill="#202726" transform="translate(0,0)"/>
<path d="" fill="#212726" transform="translate(0,0)"/>
<path d="" fill="#212626" transform="translate(0,0)"/>
<path d="" fill="#6D5234" transform="translate(0,0)"/>
<path d="" fill="#1E2226" transform="translate(0,0)"/>
<path d="" fill="#6E5734" transform="translate(0,0)"/>
<path d="" fill="#7C6137" transform="translate(0,0)"/>
<path d="" fill="#CB9344" transform="translate(0,0)"/>
<path d="" fill="#CC9346" transform="translate(0,0)"/>
<path d="" fill="#CB9244" transform="translate(0,0)"/>
<path d="" fill="#CD9645" transform="translate(0,0)"/>
<path d="" fill="#242B2A" transform="translate(0,0)"/>
<path d="" fill="#212C2B" transform="translate(0,0)"/>
<path d="" fill="#7D5F39" transform="translate(0,0)"/>
<path d="" fill="#C89047" transform="translate(0,0)"/>
<path d="" fill="#CB9447" transform="translate(0,0)"/>
<path d="" fill="#1E2528" transform="translate(0,0)"/>
<path d="" fill="#C7924C" transform="translate(0,0)"/>
<path d="" fill="#262D2E" transform="translate(0,0)"/>
<path d="" fill="#CD9548" transform="translate(0,0)"/>
<path d="" fill="#CC9444" transform="translate(0,0)"/>
<path d="" fill="#232928" transform="translate(0,0)"/>
<path d="" fill="#222A29" transform="translate(0,0)"/>
<path d="" fill="#7C5F39" transform="translate(0,0)"/>
<path d="" fill="#BE8B45" transform="translate(0,0)"/>
<path d="" fill="#C7914A" transform="translate(0,0)"/>
<path d="" fill="#272D2C" transform="translate(0,0)"/>
<path d="" fill="#C79148" transform="translate(0,0)"/>
<path d="" fill="#262C2B" transform="translate(0,0)"/>
<path d="" fill="#CA9249" transform="translate(0,0)"/>
<path d="" fill="#282D2C" transform="translate(0,0)"/>
<path d="" fill="#C79045" transform="translate(0,0)"/>
<path d="" fill="#CE9547" transform="translate(0,0)"/>
<path d="" fill="#715835" transform="translate(0,0)"/>
<path d="" fill="#C88F47" transform="translate(0,0)"/>
<path d="" fill="#212828" transform="translate(0,0)"/>
<path d="" fill="#232B2A" transform="translate(0,0)"/>
<path d="" fill="#C68C45" transform="translate(0,0)"/>
<path d="" fill="#C98F47" transform="translate(0,0)"/>
<path d="" fill="#C79248" transform="translate(0,0)"/>
<path d="" fill="#C78E48" transform="translate(0,0)"/>
<path d="" fill="#CC9546" transform="translate(0,0)"/>
<path d="" fill="#252E29" transform="translate(0,0)"/>
<path d="" fill="#A67E42" transform="translate(0,0)"/>
<path d="" fill="#283132" transform="translate(0,0)"/>
<path d="" fill="#23292A" transform="translate(0,0)"/>
<path d="" fill="#745936" transform="translate(0,0)"/>
<path d="" fill="#735B37" transform="translate(0,0)"/>
<path d="" fill="#252A29" transform="translate(0,0)"/>
<path d="" fill="#262B29" transform="translate(0,0)"/>
<path d="" fill="#77603A" transform="translate(0,0)"/>
<path d="" fill="#C88F45" transform="translate(0,0)"/>
<path d="" fill="#7F6439" transform="translate(0,0)"/>
<path d="" fill="#262D2B" transform="translate(0,0)"/>
<path d="" fill="#2C3232" transform="translate(0,0)"/>
<path d="" fill="#987445" transform="translate(0,0)"/>
<path d="" fill="#C7904A" transform="translate(0,0)"/>
<path d="" fill="#C3924D" transform="translate(0,0)"/>
<path d="" fill="#C28E4A" transform="translate(0,0)"/>
<path d="" fill="#273130" transform="translate(0,0)"/>
<path d="" fill="#BC8F4C" transform="translate(0,0)"/>
<path d="" fill="#3D392D" transform="translate(0,0)"/>
<path d="" fill="#79633F" transform="translate(0,0)"/>
<path d="" fill="#A07B47" transform="translate(0,0)"/>
<path d="" fill="#C09249" transform="translate(0,0)"/>
<path d="" fill="#BF8E4C" transform="translate(0,0)"/>
<path d="" fill="#C39047" transform="translate(0,0)"/>
</svg>
